<svg viewBox="0 0 182 182" fill="none" xmlns="http://www.w3.org/2000/svg">
<mask id="mask0_37874_16045" style="mask-type:alpha" maskUnits="userSpaceOnUse" x="30" y="30" width="122" height="122">
<path d="M152 91C152 124.689 124.689 152 91 152C57.3106 152 30 124.689 30 91C30 57.3106 57.3106 30 91 30C124.689 30 152 57.3106 152 91Z" fill="#70ACDE"/>
</mask>
<g mask="url(#mask0_37874_16045)">
<circle cx="90.8703" cy="91.1447" r="61.0001" fill="#CDE7FF"/>
<circle cx="90.8703" cy="91.1447" r="61.0001" fill="url(#paint0_linear_37874_16045)" fill-opacity="0.1"/>
<path d="M29.2071 35.8996C45.0204 22.0856 67.5341 21.9846 79.4927 35.674C88.3505 45.8137 88.9322 60.6751 82.2123 73.3143C82.092 73.5406 82.127 73.8186 82.2956 74.0116C88.2005 80.7711 86.6575 91.7803 78.8492 98.6013C71.041 105.422 59.9244 105.472 54.0196 98.7128C52.4721 96.9414 50.2504 95.6989 47.9023 95.8367C38.0829 96.4128 28.6384 93.0378 22.2274 85.699C10.2689 72.0096 13.3938 49.7137 29.2071 35.8996Z" fill="#DAF5EB"/>
<path d="M119.318 46.5418C126.364 45.0258 133.14 48.7416 134.452 54.8413C135.765 60.941 131.117 67.1147 124.07 68.6308C123.011 68.8588 121.957 68.9684 120.927 68.9694C118.619 68.9717 116.283 69.5054 114.091 70.2305C110.787 71.3235 107.248 70.633 105.08 68.1511C102.053 64.6864 102.844 59.0433 106.847 55.5471C107.018 55.3972 107.193 55.2538 107.37 55.1167C108.797 54.0144 110.141 52.7517 111.278 51.3524C113.161 49.0353 115.969 47.2624 119.318 46.5418Z" fill="#DAF5EB"/>
<path d="M107.695 95.6369C116.122 93.8236 124.444 99.2799 126.283 107.824C126.284 107.829 126.287 107.834 126.292 107.837C129.449 109.712 131.78 112.679 132.566 116.33C133.775 121.952 130.978 127.601 125.954 130.843C125.93 130.859 125.933 130.895 125.959 130.907C125.986 130.918 126.002 130.947 125.977 130.962C124.736 131.697 98.6375 146.923 84.172 135.143C81.5578 133.266 79.6547 130.573 78.96 127.344C77.3456 119.841 82.8687 112.288 91.2962 110.475C91.3138 110.471 91.3314 110.467 91.3489 110.464C93.5874 109.989 95.4778 108.237 96.1905 106.063C97.8687 100.942 102.102 96.8402 107.695 95.6369Z" fill="#DAF5EB"/>
<path d="M75.1155 69.0516C75.1155 70.7478 73.7405 72.1228 72.0443 72.1228C70.3482 72.1228 68.9731 70.7478 68.9731 69.0516C68.9731 67.3555 70.3482 65.9805 72.0443 65.9805C73.7405 65.9805 75.1155 67.3555 75.1155 69.0516Z" fill="#9297A3"/>
<path d="M95.659 69.0516C95.659 70.7478 94.2839 72.1228 92.5878 72.1228C90.8916 72.1228 89.5166 70.7478 89.5166 69.0516C89.5166 67.3555 90.8916 65.9805 92.5878 65.9805C94.2839 65.9805 95.659 67.3555 95.659 69.0516Z" fill="#9297A3"/>
<path d="M87.9075 81.8801C88.9646 82.3967 90.2524 81.9987 90.8284 80.9576C91.4043 79.9164 91.057 78.614 90.0577 77.9931L89.9588 77.9352C82.9309 74.0476 76.1794 76.1836 73.3925 77.9364L73.2628 78.0196L73.1684 78.0847C72.2175 78.7776 71.967 80.1021 72.618 81.098C73.2691 82.094 74.5831 82.3961 75.5992 81.8029L75.6965 81.7427L75.7786 81.6902C77.5534 80.5785 82.5466 78.9178 87.806 81.8271L87.9075 81.8801Z" fill="#9297A3"/>
<path d="M101.023 77.1447C99.4332 76.3171 98.6344 74.476 97.956 72.1451C97.8638 71.8282 98.1033 71.5125 98.4331 71.5225C99.9893 71.5696 103.357 71.8687 104.268 73.7661C105.35 76.0185 103.186 78.2709 101.023 77.1447Z" fill="#94BDF6"/>
</g>
<defs>
<linearGradient id="paint0_linear_37874_16045" x1="81.4909" y1="58.6718" x2="126.999" y2="138.141" gradientUnits="userSpaceOnUse">
<stop stop-color="white"/>
<stop offset="1" stop-color="#2887D7"/>
</linearGradient>
</defs>
</svg>
