<svg viewBox="0 0 24 24" fill="none" xmlns="http://www.w3.org/2000/svg">
<path d="M13.2963 12.1357C13.2963 11.7369 13.2957 11.4842 13.2801 11.2931C13.2652 11.1114 13.2405 11.0545 13.2305 11.0349C13.1725 10.9211 13.0799 10.8275 12.9661 10.7695C12.946 10.7593 12.8889 10.7348 12.7069 10.7199C12.5153 10.7043 12.2612 10.7037 11.8613 10.7037H7.9906C7.5906 10.7037 7.33651 10.7043 7.14497 10.7199C6.96294 10.7348 6.90582 10.7593 6.88571 10.7695C6.77194 10.8275 6.67937 10.9201 6.62139 11.0339C6.61115 11.054 6.58666 11.1111 6.57176 11.2931C6.55611 11.4847 6.55556 11.7387 6.55556 12.1387V16.0094C6.55556 16.4094 6.55611 16.6635 6.57176 16.855C6.58666 17.0371 6.61115 17.0942 6.62139 17.1143C6.67937 17.2281 6.77194 17.3206 6.88571 17.3786C6.90532 17.3886 6.96329 17.4134 7.14497 17.4282C7.3361 17.4439 7.58875 17.4444 7.98756 17.4444H11.8643C12.2632 17.4444 12.5159 17.4439 12.7069 17.4282C12.8886 17.4134 12.9459 17.3889 12.9661 17.3786C13.0799 17.3206 13.1725 17.2281 13.2305 17.1143C13.2408 17.094 13.2652 17.0369 13.2801 16.855C13.2957 16.664 13.2963 16.4115 13.2963 16.0124V12.1357ZM14.8519 13.2963H16.0124C16.4111 13.2963 16.6639 13.2957 16.855 13.2801C17.0369 13.2652 17.0941 13.2407 17.1143 13.2305C17.2281 13.1725 17.3206 13.0799 17.3786 12.9661C17.3889 12.946 17.4133 12.8889 17.4282 12.7069C17.4439 12.5153 17.4444 12.2612 17.4444 11.8613V7.9906C17.4444 7.5906 17.4439 7.33651 17.4282 7.14497C17.4133 6.96294 17.3889 6.90582 17.3786 6.88571C17.3206 6.77194 17.2281 6.67937 17.1143 6.62139C17.0942 6.61115 17.0371 6.58666 16.855 6.57176C16.6635 6.55611 16.4094 6.55556 16.0094 6.55556H12.1387C11.7387 6.55556 11.4847 6.55611 11.2931 6.57176C11.1111 6.58666 11.054 6.61115 11.0339 6.62139C10.9197 6.67954 10.8277 6.77152 10.7695 6.88571C10.7593 6.90582 10.7348 6.96294 10.7199 7.14497C10.7043 7.33651 10.7037 7.5906 10.7037 7.9906V9.14815H11.8613C12.2356 9.14815 12.5639 9.14739 12.8335 9.16942C13.112 9.19219 13.3964 9.24278 13.672 9.3831C14.0781 9.59002 14.4077 9.92104 14.6149 10.327C14.7556 10.6026 14.8078 10.8873 14.8306 11.1655C14.8526 11.4348 14.8519 11.7623 14.8519 12.1357V13.2963ZM19 11.8613C19 12.2356 19.0008 12.5639 18.9787 12.8335C18.956 13.112 18.9054 13.3964 18.765 13.672C18.5579 14.0785 18.2266 14.4088 17.8202 14.6159C17.5445 14.7562 17.26 14.8078 16.9816 14.8306C16.7124 14.8526 16.3855 14.8519 16.0124 14.8519H14.8519V16.0124C14.8519 16.3857 14.8526 16.7125 14.8306 16.9816C14.8078 17.26 14.7572 17.5446 14.6169 17.8202C14.4098 18.2266 14.0785 18.5569 13.672 18.764C13.3965 18.9043 13.1118 18.9559 12.8335 18.9787C12.5643 19.0007 12.2374 19 11.8643 19H7.98756C7.61414 19 7.28662 19.0008 7.01736 18.9787C6.73914 18.9559 6.45444 18.9047 6.17882 18.764C5.77271 18.5569 5.44296 18.2264 5.23597 17.8202C5.09564 17.5445 5.04405 17.2601 5.02127 16.9816C4.99924 16.712 5 16.3837 5 16.0094V12.1387C5 11.7644 4.99924 11.4361 5.02127 11.1665C5.04405 10.888 5.09463 10.6036 5.23496 10.328C5.44208 9.9215 5.77335 9.59124 6.17983 9.38412C6.45546 9.24379 6.73987 9.19219 7.01838 9.16942C7.28797 9.14739 7.61627 9.14815 7.9906 9.14815H9.14815V7.9906C9.14815 7.61627 9.14739 7.28797 9.16942 7.01838C9.19219 6.73987 9.24278 6.45546 9.3831 6.17983C9.59043 5.77274 9.92089 5.44228 10.328 5.23496C10.6036 5.09463 10.888 5.04405 11.1665 5.02127C11.4361 4.99924 11.7644 5 12.1387 5H16.0094C16.3837 5 16.712 4.99924 16.9816 5.02127C17.2601 5.04405 17.5445 5.09463 17.8202 5.23496C18.2266 5.44208 18.5569 5.77335 18.764 6.17983C18.9044 6.45546 18.956 6.73987 18.9787 7.01838C19.0008 7.28797 19 7.61627 19 7.9906V11.8613Z" fill="currentColor"/>
</svg>
