<svg viewBox="0 0 24 24" fill="none" xmlns="http://www.w3.org/2000/svg">
<path d="M13.4908 4.55818C13.4908 5.41873 12.7932 6.11635 11.9327 6.11635C11.0721 6.11635 10.3745 5.41873 10.3745 4.55818C10.3745 3.69762 11.0721 3 11.9327 3C12.7932 3 13.4908 3.69762 13.4908 4.55818Z" fill="#707177"/>
<path d="M11.9343 4.55815C15.0565 4.5584 17.6003 7.03007 17.7174 10.1236C17.7175 10.1252 17.7188 10.1265 17.7204 10.1265C17.722 10.1265 17.7234 10.1278 17.7234 10.1295V13.5056C17.7234 14.125 18.4413 14.6196 18.7888 15.1324L19.8005 16.6265C20.2498 17.2905 19.774 18.1868 18.9724 18.1871H5.00169C4.19981 18.1871 3.72409 17.2906 4.17357 16.6265L5.18431 15.1324C5.51407 14.6456 6.14622 14.1794 6.14622 13.5914V10.1295C6.14622 10.1278 6.14756 10.1265 6.14921 10.1265C6.15081 10.1265 6.15213 10.1252 6.15219 10.1236C6.2693 7.03006 8.81215 4.55837 11.9343 4.55815Z" fill="#707177"/>
<path d="M14.3384 19.4513C14.3382 20.7834 13.2583 21.8635 11.9263 21.8635C10.6774 21.8633 9.65024 20.9138 9.52684 19.6974L9.51414 19.4513H14.3384Z" fill="#707177"/>
<path d="M16.5 6C16.6842 6 16.8533 6.10137 16.9404 6.26367C17.0274 6.42625 17.0183 6.62392 16.916 6.77734L15.4346 9H16.5C16.7761 9 17 9.22386 17 9.5C17 9.77614 16.7761 10 16.5 10H14.5C14.3158 10 14.1467 9.89863 14.0596 9.73633C13.9726 9.57375 13.9817 9.37608 14.084 9.22266L15.5654 7H14.5C14.2239 7 14 6.77614 14 6.5C14 6.22386 14.2239 6 14.5 6H16.5ZM21.5 2C21.6894 2 21.8626 2.10698 21.9473 2.27637C22.0319 2.44564 22.0138 2.64833 21.9004 2.7998L19.5 6H21.5C21.7761 6 22 6.22386 22 6.5C22 6.77614 21.7761 7 21.5 7H18.5C18.3106 7 18.1374 6.89302 18.0527 6.72363C17.9681 6.55436 17.9862 6.35167 18.0996 6.2002L20.5 3H18.5C18.2239 3 18 2.77614 18 2.5C18 2.22386 18.2239 2 18.5 2H21.5Z" fill="#707177"/>
<path d="M14.5 6C14.2239 6 14 6.22386 14 6.5C14 6.77614 14.2239 7 14.5 7H15.5654L14.084 9.22266C13.9817 9.37608 13.9726 9.57375 14.0596 9.73633C14.1467 9.89863 14.3158 10 14.5 10H16.5C16.7761 10 17 9.77614 17 9.5C17 9.22386 16.7761 9 16.5 9H15.4346L16.916 6.77734C17.0183 6.62392 17.0274 6.42625 16.9404 6.26367C16.8533 6.10137 16.6842 6 16.5 6V5C16.8649 5 17.2081 5.13451 17.4756 5.36426L18.5 4C17.6716 4 17 3.32843 17 2.5C17 1.67157 17.6716 1 18.5 1V2C18.2239 2 18 2.22386 18 2.5C18 2.77614 18.2239 3 18.5 3H20.5L18.0996 6.2002C17.9862 6.35167 17.9681 6.55436 18.0527 6.72363C18.1374 6.89302 18.3106 7 18.5 7H21.5C21.7761 7 22 6.77614 22 6.5C22 6.22386 21.7761 6 21.5 6H19.5L21.9004 2.7998C22.0138 2.64833 22.0319 2.44564 21.9473 2.27637C21.8626 2.10698 21.6894 2 21.5 2V1C21.9969 1 22.4569 1.24553 22.7344 1.64746L22.8418 1.8291L22.9229 2.02344C23.0778 2.48591 22.9992 3.00142 22.7012 3.39941H22.7002L21.5 5C22.3284 5 23 5.67157 23 6.5C23 7.32843 22.3284 8 21.5 8H18.5C18.1409 8 17.8017 7.87121 17.5361 7.64844L17.1895 8.16797C17.6709 8.41766 18 8.92023 18 9.5C18 10.3284 17.3284 11 16.5 11H14.5C13.9467 11 13.4397 10.6953 13.1787 10.209L13.1777 10.208C12.9177 9.72192 12.9441 9.1297 13.252 8.66797L13.8105 7.83105C13.3293 7.58129 13 7.07961 13 6.5C13 5.67157 13.6716 5 14.5 5V6ZM16.5 5V6H14.5V5H16.5ZM21.5 1V2H18.5V1H21.5Z" fill="white"/>
</svg>
