<svg viewBox="0 0 111 111" fill="none" xmlns="http://www.w3.org/2000/svg">
<rect width="111" height="111" rx="55.5" fill="#E5F3FF"/>
<g filter="url(#filter0_d_37872_14206)">
<path d="M48.6955 34.6875C54.362 34.6875 59.4938 37.0007 63.2172 40.7437C63.5608 41.0892 64.0436 41.2557 64.5248 41.1965C65.2905 41.1024 66.0714 41.0538 66.8643 41.0538C72.5932 41.0538 77.6944 43.5863 80.9764 47.5281C81.3392 47.9638 81.9028 48.1756 82.4613 48.1005C82.9996 48.028 83.5498 47.9905 84.1091 47.9905C90.5315 47.9905 95.7377 52.9236 95.7377 59.0088C95.7377 65.0941 90.5315 70.0271 84.1091 70.0271C83.0212 70.0271 81.9681 69.8854 80.9693 69.6206C80.4275 69.4769 79.8454 69.6131 79.4325 69.9957C76.1972 72.9936 71.7601 74.8434 66.8643 74.8434C64.4571 74.8434 62.1609 74.396 60.0638 73.585C59.6255 73.4156 59.1344 73.45 58.7247 73.6814C55.7569 75.3572 52.3366 76.3125 48.6955 76.3125C44.7203 76.3125 41.0082 75.1739 37.861 73.2019C37.2571 72.8236 36.4736 72.8976 35.9282 73.3578C33.7428 75.2019 30.9301 76.312 27.8605 76.312C20.903 76.312 15.2628 70.6117 15.2627 63.5799C15.2627 56.548 20.903 50.8476 27.8605 50.8475C28.2957 50.8475 28.6831 50.5545 28.7951 50.1295C31.1381 41.238 39.1599 34.6875 48.6955 34.6875Z" fill="white"/>
<path d="M39.5479 47.401C39.5479 48.2112 38.8981 48.868 38.0965 48.868C37.2949 48.868 36.645 48.2112 36.645 47.401C36.645 46.5908 37.2949 45.9341 38.0965 45.9341C38.8981 45.9341 39.5479 46.5908 39.5479 47.401Z" fill="#202020"/>
<path d="M46.0794 46.1786C46.0794 46.9887 45.4296 47.6455 44.628 47.6455C43.8263 47.6455 43.1765 46.9887 43.1765 46.1786C43.1765 45.3684 43.8263 44.7116 44.628 44.7116C45.4296 44.7116 46.0794 45.3684 46.0794 46.1786Z" fill="#202020"/>
<path d="M38.6402 51.4319C38.92 51.0718 39.4283 50.9999 39.7941 51.2612L39.829 51.2874L39.9234 51.359C40.4161 51.7184 41.2264 52.0847 42.1183 52.0761C43.0166 52.0673 44.0991 51.6794 45.1184 50.2728L45.1451 50.2381C45.4278 49.8869 45.9364 49.8178 46.3018 50.0883C46.679 50.3676 46.7609 50.903 46.4846 51.2843L46.3607 51.4507C45.0733 53.138 43.5566 53.7735 42.1346 53.7873C40.8082 53.8002 39.6506 53.2729 38.9229 52.74L38.7831 52.6334L38.7496 52.6053C38.4117 52.308 38.3604 51.792 38.6402 51.4319Z" fill="#202020"/>
</g>
<defs>
<filter id="filter0_d_37872_14206" x="9.2627" y="28.6875" width="100.475" height="61.625" filterUnits="userSpaceOnUse" color-interpolation-filters="sRGB">
<feFlood flood-opacity="0" result="BackgroundImageFix"/>
<feColorMatrix in="SourceAlpha" type="matrix" values="0 0 0 0 0 0 0 0 0 0 0 0 0 0 0 0 0 0 127 0" result="hardAlpha"/>
<feOffset dx="4" dy="4"/>
<feGaussianBlur stdDeviation="5"/>
<feComposite in2="hardAlpha" operator="out"/>
<feColorMatrix type="matrix" values="0 0 0 0 0.240404 0 0 0 0 0.618659 0 0 0 0 0.949632 0 0 0 0.04 0"/>
<feBlend mode="normal" in2="BackgroundImageFix" result="effect1_dropShadow_37872_14206"/>
<feBlend mode="normal" in="SourceGraphic" in2="effect1_dropShadow_37872_14206" result="shape"/>
</filter>
</defs>
</svg>
