<svg viewBox="0 0 18 20" fill="none" xmlns="http://www.w3.org/2000/svg">
<path fill-rule="evenodd" clip-rule="evenodd" d="M3.5 14H13C14.886 14 15.828 14 16.414 13.414C17 12.828 17 11.886 17 10V5C17 3.114 17 2.172 16.414 1.586C15.828 1 14.886 1 13 1H5C3.114 1 2.172 1 1.586 1.586C1 2.172 1 3.114 1 5V16.5C1 15.837 1.26339 15.2011 1.73223 14.7322C2.20107 14.2634 2.83696 14 3.5 14ZM13.414 7.414C13.605 7.22951 13.7574 7.00882 13.8622 6.76481C13.967 6.5208 14.0222 6.25836 14.0245 5.9928C14.0268 5.72724 13.9762 5.46388 13.8756 5.21809C13.7751 4.9723 13.6266 4.749 13.4388 4.56121C13.251 4.37342 13.0277 4.22492 12.7819 4.12436C12.5361 4.02379 12.2728 3.97319 12.0072 3.9755C11.7416 3.97781 11.4792 4.03298 11.2352 4.1378C10.9912 4.24262 10.7705 4.39498 10.586 4.586L8 7.172L7.414 6.586C7.22951 6.39498 7.00882 6.24262 6.76481 6.1378C6.5208 6.03298 6.25836 5.97781 5.9928 5.9755C5.72724 5.97319 5.46388 6.02379 5.21809 6.12436C4.9723 6.22492 4.749 6.37342 4.56121 6.56121C4.37342 6.749 4.22492 6.9723 4.12436 7.21809C4.02379 7.46388 3.97319 7.72724 3.9755 7.9928C3.97781 8.25836 4.03298 8.5208 4.1378 8.76481C4.24262 9.00882 4.39498 9.22951 4.586 9.414L5.879 10.707C6.44158 11.2694 7.20451 11.5854 8 11.5854C8.79549 11.5854 9.55842 11.2694 10.121 10.707L13.414 7.414Z" fill="currentColor"/>
<path d="M16 5C16 4.02927 15.9975 3.40042 15.9355 2.93945C15.8765 2.50545 15.783 2.36897 15.707 2.29297C15.631 2.21697 15.4945 2.12345 15.0605 2.06445C14.5986 2.0025 13.9707 2 13 2H5C4.02927 2 3.40042 2.0025 2.93945 2.06445C2.50545 2.12345 2.36897 2.21697 2.29297 2.29297C2.21697 2.36897 2.12345 2.50545 2.06445 2.93945C2.0025 3.40142 2 4.02927 2 5V13.3379C2.46444 13.1176 2.97614 13 3.5 13H13C13.9707 13 14.5986 12.9975 15.0605 12.9355C15.4945 12.8765 15.631 12.783 15.707 12.707C15.783 12.631 15.8765 12.4945 15.9355 12.0605C15.9975 11.5986 16 10.9707 16 10V5ZM12 3.00098C12.7955 3.00098 13.5585 3.3165 14.1211 3.87891C14.6835 4.44149 14.999 5.20451 14.999 6C14.999 6.79549 14.6835 7.55851 14.1211 8.12109L10.8281 11.4141C10.078 12.1639 9.06066 12.585 8 12.585C6.93934 12.585 5.92198 12.1639 5.17188 11.4141L3.87891 10.1211C3.3165 9.55851 3.00098 8.79549 3.00098 8C3.00098 7.20451 3.31649 6.44149 3.87891 5.87891C4.44149 5.31649 5.20451 5.00098 6 5.00098C6.73769 5.00098 7.44528 5.2747 7.99316 5.7627L9.87891 3.87891C10.4415 3.31649 11.2045 3.00098 12 3.00098ZM12 5C11.7348 5 11.4805 5.1055 11.293 5.29297L8.70703 7.87891L8 7.1709L7.29297 7.87891L6.70703 7.29297C6.5195 7.1055 6.26516 7 6 7C5.73484 7 5.4805 7.1055 5.29297 7.29297C5.1055 7.4805 5 7.73484 5 8C5 8.26516 5.1055 8.5195 5.29297 8.70703L6.58594 10C6.96099 10.3749 7.46967 10.5859 8 10.5859C8.53033 10.5859 9.03901 10.3749 9.41406 10L12.707 6.70703C12.8945 6.5195 13 6.26516 13 6C13 5.73484 12.8945 5.4805 12.707 5.29297C12.5195 5.1055 12.2652 5 12 5ZM8.70703 7.87891L8 8.58594L7.29297 7.87891L8 7.17188L8.70703 7.87891ZM18 10C18 10.915 18.002 11.7001 17.918 12.3281C17.83 12.9831 17.6311 13.6111 17.1211 14.1211C16.6121 14.6311 15.9831 14.83 15.3281 14.918C14.7011 15.002 13.915 15 13 15H3.5C3.10218 15 2.72076 15.1581 2.43945 15.4395C2.15815 15.7208 2 16.1022 2 16.5C2 16.8978 2.15815 17.2792 2.43945 17.5605C2.72076 17.8419 3.10218 18 3.5 18H17C17.5523 18 18 18.4477 18 19C18 19.5523 17.5523 20 17 20H3.5C2.57174 20 1.68177 19.631 1.02539 18.9746C0.369016 18.3182 0 17.4283 0 16.5V5C-6.25335e-09 4.085 -0.00196862 3.29987 0.0820312 2.67188C0.17004 2.01692 0.36894 1.38887 0.878906 0.878906C1.38787 0.36894 2.01692 0.17004 2.67188 0.0820312C3.29887 -0.00196862 4.085 -6.25331e-09 5 0H13C13.915 0 14.7001 -0.00196875 15.3281 0.0820312C15.9831 0.170039 16.6111 0.368941 17.1211 0.878906C17.6311 1.38787 17.83 2.01692 17.918 2.67188C18.002 3.29887 18 4.085 18 5V10Z" fill="currentColor"/>
</svg>
