<svg viewBox="0 0 65 72" fill="none" xmlns="http://www.w3.org/2000/svg">
<g opacity="0.6">
<mask id="mask0_37898_19237" style="mask-type:alpha" maskUnits="userSpaceOnUse" x="0" y="11" width="61" height="61">
<path d="M61 41.5C61 58.3447 47.3447 72 30.5 72C13.6553 72 0 58.3447 0 41.5C0 24.6553 13.6553 11 30.5 11C47.3447 11 61 24.6553 61 41.5Z" fill="#70ACDE"/>
</mask>
<g mask="url(#mask0_37898_19237)">
<circle cx="30.4337" cy="41.5723" r="30.5001" fill="#70ACDE"/>
<circle cx="30.4337" cy="41.5723" r="30.5001" fill="url(#paint0_linear_37898_19237)" fill-opacity="0.2"/>
<path d="M-0.395961 13.9498C7.5107 7.04278 18.7676 6.99231 24.7468 13.837C29.1757 18.9069 29.4666 26.3376 26.1067 32.6571C26.0465 32.7703 26.064 32.9093 26.1483 33.0058V33.0058C29.1007 36.3855 28.3292 41.8901 24.4251 45.3007C20.521 48.7112 14.9627 48.7361 12.0103 45.3564V45.3564C11.2365 44.4707 10.1257 43.8495 8.95163 43.9183C4.04193 44.2064 -0.680307 42.5189 -3.88579 38.8495C-9.86504 32.0048 -8.30261 20.8568 -0.395961 13.9498Z" fill="#99E587"/>
<path d="M44.6597 19.2709C48.1827 18.5129 51.5706 20.3708 52.2268 23.4207C52.883 26.4705 50.559 29.5574 47.036 30.3154C46.5061 30.4294 45.9793 30.4842 45.4644 30.4847C44.3101 30.4858 43.1423 30.7527 42.0463 31.1152C40.3942 31.6618 38.6249 31.3165 37.5408 30.0756C36.0275 28.3432 36.4229 25.5217 38.424 23.7735C38.5098 23.6986 38.5971 23.6269 38.6858 23.5584C39.3993 23.0072 40.0713 22.3759 40.6399 21.6762C41.5814 20.5177 42.9851 19.6312 44.6597 19.2709Z" fill="#99E587"/>
<path d="M38.8473 43.8184C43.0611 42.9118 47.2221 45.64 48.1413 49.912V49.912C48.1419 49.9147 48.1435 49.9171 48.146 49.9186C49.7246 50.8561 50.89 52.3394 51.2828 54.1649C51.8876 56.9759 50.489 59.8005 47.9772 61.4217C47.9652 61.4295 47.9666 61.4476 47.9797 61.4533V61.4533C47.9931 61.4591 48.0012 61.4733 47.9887 61.4808C47.3679 61.8487 34.3187 69.4613 27.086 63.5713C25.7789 62.633 24.8273 61.2864 24.48 59.6721C23.6728 55.9204 26.4344 52.1441 30.6481 51.2374C30.6569 51.2355 30.6657 51.2337 30.6745 51.2318C31.7937 50.9945 32.7389 50.1186 33.0952 49.0314C33.9343 46.4712 36.0511 44.4201 38.8473 43.8184Z" fill="#99E587"/>
<path d="M22.5575 30.5258C22.5575 31.3739 21.87 32.0614 21.0219 32.0614C20.1738 32.0614 19.4863 31.3739 19.4863 30.5258C19.4863 29.6777 20.1738 28.9902 21.0219 28.9902C21.87 28.9902 22.5575 29.6777 22.5575 30.5258Z" fill="#202020"/>
<path d="M32.83 30.5258C32.83 31.3739 32.1425 32.0614 31.2944 32.0614C30.4463 32.0614 29.7588 31.3739 29.7588 30.5258C29.7588 29.6777 30.4463 28.9902 31.2944 28.9902C32.1425 28.9902 32.83 29.6777 32.83 30.5258Z" fill="#202020"/>
<path d="M28.954 33.9877C29.4825 33.7294 30.1265 33.9284 30.4144 34.449C30.7024 34.9695 30.5288 35.6207 30.0291 35.9312L29.9796 35.9601C26.4657 37.9039 23.0899 36.8359 21.6965 35.9595L21.6316 35.9179L21.5845 35.8854C21.109 35.539 20.9838 34.8767 21.3093 34.3787C21.6348 33.8808 22.2918 33.7297 22.7999 34.0263L22.8485 34.0564L22.8895 34.0826C23.7769 34.6385 26.2735 35.4688 28.9032 34.0142L28.954 33.9877Z" fill="#202020"/>
</g>
</g>
<rect x="32" width="33" height="17" rx="4" fill="#E5F3FF"/>
<path d="M58.6897 4.01641C58.8327 3.79541 59.1057 3.69141 59.3267 3.69141C59.5217 3.69141 59.7037 3.69141 59.8727 3.73041C60.6007 3.92541 60.4057 5.35541 60.4057 5.91441V9.74941C60.4057 10.0874 60.4317 10.4514 60.3147 10.7634C60.0807 11.3484 58.8327 11.3094 58.5987 10.7504C58.5467 10.5944 58.5207 10.3214 58.5077 10.1394C58.4947 9.84041 58.5077 9.51541 58.5077 9.19041V4.83541C58.5077 4.62741 58.5467 4.23741 58.6897 4.01641ZM60.1847 12.3754C60.2367 12.4534 60.2887 12.5314 60.3147 12.6354C60.4187 12.9994 60.3927 13.5324 59.9637 13.7144C59.5867 13.8704 58.8587 13.8054 58.6897 13.3504C58.5987 13.1034 58.5857 12.7524 58.6767 12.5054C58.7807 12.2454 59.0277 12.1674 59.2877 12.1674C59.6127 12.1544 59.9637 12.1544 60.1847 12.3754Z" fill="#0D6CD1"/>
<path d="M56.2099 11.6602C56.2619 11.6732 56.3139 11.6602 56.3659 11.6602C56.6519 11.6862 56.9119 11.7512 57.1459 11.9722C57.2629 12.0762 57.3279 12.2322 57.3279 12.4142C57.3279 12.5962 57.2629 12.8562 57.1589 12.9732C56.8989 13.2462 56.2489 13.2202 56.2229 13.2202H49.0729C48.9949 13.2202 48.9039 13.2332 48.8259 13.2332C48.4489 13.2462 47.9939 13.2722 47.6949 13.0252C47.5259 12.8692 47.4219 12.6742 47.4219 12.4662C47.4219 12.2062 47.5909 11.8812 47.8509 11.7772C48.2019 11.6472 48.5789 11.6732 48.9559 11.6602H49.0209C49.2419 11.6602 49.5929 11.6472 49.8269 11.6472C49.8269 11.2572 49.8009 10.9842 49.8009 10.9842V10.4382V10.4252C49.5539 10.4252 49.3069 10.4252 49.0599 10.4122C48.6959 10.3862 48.4359 9.99617 48.3969 9.55417C48.3709 9.22917 48.3579 8.00717 48.3579 7.73417V7.42217C48.3449 7.21417 48.3449 6.96717 48.5009 6.77217C48.7219 6.47317 49.1899 6.43417 49.5669 6.43417C49.6579 6.43417 49.9049 6.46017 50.0219 6.44717H54.8969V5.49817H49.8919C49.8009 5.49817 49.6969 5.51117 49.6059 5.51117C49.5019 5.51117 49.3849 5.52417 49.2809 5.52417C49.1119 5.52417 48.9689 5.51117 48.8389 5.47217C48.6829 5.43317 48.5659 5.32917 48.4749 5.17317C48.3579 4.96517 48.3319 4.70517 48.3839 4.47117C48.4749 4.15917 48.8649 4.01617 49.0599 3.97717C49.1899 3.95117 49.3199 3.95117 49.4759 3.95117H49.9309C50.4769 3.96417 51.6469 3.96417 52.4009 3.95117H55.0269C55.3259 3.95117 55.6249 3.95117 55.8979 4.04217C56.3139 4.15917 56.3919 4.71817 56.3919 5.09517V6.66817C56.3919 6.92817 56.3009 7.68217 56.0279 7.86417C55.7939 8.00717 55.5599 8.00717 55.3519 7.99417H49.9569V9.00817H55.3649C55.5209 9.00817 55.6639 9.00817 55.8069 9.02117C56.0669 9.03417 56.3009 9.15117 56.3919 9.45017C56.4829 9.80117 56.3659 10.1782 56.0539 10.3212C55.8459 10.4122 55.6119 10.4252 55.4299 10.4252H54.8059C54.8189 10.8672 54.8189 11.1402 54.8319 11.6602H55.3259C55.6379 11.6732 55.9369 11.6342 56.2099 11.6602ZM51.4389 11.6602H52.9339H53.2199C53.2199 11.2572 53.1939 10.9842 53.1939 10.9842V10.4382V10.4252H51.4129C51.4259 10.8672 51.4259 11.1402 51.4389 11.6602Z" fill="#0D6CD1"/>
<path d="M37.5063 8.18792C37.9093 8.18792 38.4423 8.21392 39.0273 8.23992C39.0403 7.97992 39.0403 7.69392 39.0403 7.43392C38.6633 7.39492 38.2863 7.30392 37.9093 7.10892C37.1553 6.71892 36.9343 6.00392 36.9343 5.32792C36.9343 3.84592 38.1563 3.16992 40.3143 3.16992C42.0823 3.26092 43.2523 4.06692 43.1223 5.53592C43.0183 6.65392 42.1603 7.34292 40.7693 7.47292V7.94092C40.7563 8.05792 40.7563 8.16192 40.7563 8.26592C41.1593 8.25292 41.1853 8.22692 41.9783 8.25292C42.3033 8.25292 42.6153 8.22692 42.9143 8.35692C43.1353 8.46092 43.2783 8.70792 43.2783 8.98092C43.2783 9.20192 43.1873 9.40992 43.0443 9.56592C42.7973 9.82592 42.4073 9.81292 42.0953 9.78692H37.5063C37.4803 9.78692 36.9343 9.79992 36.7263 9.50092C36.6223 9.39692 36.5703 9.21492 36.5703 9.03292C36.5703 8.85092 36.6353 8.66892 36.7263 8.55192C36.9213 8.33092 37.2853 8.21392 37.5063 8.18792ZM45.4233 12.3089C45.4493 12.3219 45.9303 12.4389 45.9823 12.8029C46.0343 13.1279 45.9823 13.3879 45.8263 13.5699C45.6313 13.8169 45.3453 13.8299 45.3323 13.8299H38.5463C37.8833 13.8299 37.4803 13.5959 37.4803 13.2059V12.0489C37.4673 11.8539 37.4673 11.6589 37.4803 11.4639C37.5063 11.0999 37.7793 10.8529 38.1433 10.8529C38.2343 10.8529 38.4163 10.8659 38.4943 10.8919C38.9363 11.0349 38.9623 11.4769 38.9883 11.8669C38.9883 12.0099 39.0013 12.1659 39.0403 12.2829C39.0793 12.2959 39.3393 12.3349 39.9503 12.3349C40.4703 12.3349 40.9513 12.3089 40.9643 12.3089H45.4233ZM44.1233 8.82492V5.05492C44.1103 4.66492 44.1233 4.02792 44.3443 3.80692C44.5393 3.63792 44.7343 3.61192 44.9683 3.61192C45.2543 3.61192 45.5143 3.79392 45.6183 4.05392C45.7613 4.41792 45.7483 4.80792 45.7613 5.18492C45.7613 5.76992 45.7743 6.27692 45.7743 6.78392C46.1253 6.78392 46.4373 6.79692 46.6323 6.80992C47.0873 6.83592 47.3993 7.52492 47.1263 7.87592C46.8923 8.20092 46.3333 8.26592 45.7873 8.26592V8.68192C45.7873 9.04592 45.7223 9.20192 45.6573 9.39692C45.6443 9.44892 45.6183 9.50092 45.5923 9.56592C45.5403 9.66992 45.4623 9.77392 45.3583 9.83892C45.1763 9.95592 44.9423 9.98192 44.7213 9.94292C44.6173 9.91692 44.5003 9.86492 44.4093 9.78692C44.1103 9.50092 44.1233 8.85092 44.1233 8.82492ZM41.4193 5.66592L41.4323 5.58792C41.5103 5.09392 41.1983 4.74292 40.6523 4.58692C39.9243 4.39192 38.6763 4.43092 38.5333 5.21092C38.4293 5.73092 38.7153 6.15992 39.7163 6.23792C40.4053 6.28992 41.2503 6.28992 41.4193 5.66592Z" fill="#0D6CD1"/>
<path d="M37.933 19.8842L39.7427 16.75C39.9352 16.4167 39.6946 16 39.3097 16H37.5C37.2239 16 37 16.2239 37 16.5V19.6342C37 20.1457 37.6772 20.3272 37.933 19.8842Z" fill="#E5F3FF"/>
<defs>
<linearGradient id="paint0_linear_37898_19237" x1="25.744" y1="25.3359" x2="48.4979" y2="65.0704" gradientUnits="userSpaceOnUse">
<stop stop-color="white"/>
<stop offset="1" stop-color="#2887D7"/>
</linearGradient>
</defs>
</svg>
