<svg viewBox="0 0 24 24" fill="none" xmlns="http://www.w3.org/2000/svg">
<path d="M12.3333 4C7.73611 4 4 6.89583 4 10.4653C4 12.6875 5.44444 14.632 7.64583 15.8125L6.71528 19.2083C6.69998 19.2757 6.70514 19.3461 6.73007 19.4106C6.75501 19.475 6.79861 19.5305 6.85528 19.57C6.91195 19.6095 6.97912 19.6313 7.0482 19.6324C7.11728 19.6335 7.18513 19.614 7.24306 19.5764L11.2917 16.8819C11.6377 16.9179 11.9854 16.9365 12.3333 16.9375C16.9375 16.9375 20.6667 14.0417 20.6667 10.4653C20.6667 6.88889 16.9375 4 12.3333 4Z" fill="currentColor"/>
</svg>
