<svg viewBox="0 0 24 24" fill="none" xmlns="http://www.w3.org/2000/svg">
<path d="M10.9381 2.70798C11.525 1.76401 12.8989 1.76401 13.4858 2.70798L15.9103 6.60749C16.1168 6.93962 16.4449 7.17796 16.8246 7.27172L21.2825 8.37257C22.3616 8.63906 22.7861 9.94569 22.0697 10.7956L19.1103 14.3065C18.8582 14.6055 18.7329 14.9911 18.7611 15.3812L19.0917 19.9611C19.1717 21.0698 18.0602 21.8773 17.0305 21.4586L12.777 19.7289C12.4147 19.5816 12.0092 19.5816 11.6469 19.7289L7.39336 21.4586C6.36369 21.8773 5.2522 21.0698 5.33223 19.9611L5.66282 15.3812C5.69097 14.9911 5.56567 14.6055 5.31361 14.3065L2.35417 10.7956C1.63777 9.94569 2.06232 8.63906 3.14146 8.37257L7.59934 7.27172C7.97902 7.17796 8.30707 6.93962 8.51357 6.60749L10.9381 2.70798Z" fill="currentColor"/>
</svg>
