<svg viewBox="0 0 103 97" fill="none" xmlns="http://www.w3.org/2000/svg">
<mask id="mask0_37968_15443" style="mask-type:alpha" maskUnits="userSpaceOnUse" x="0" y="12" width="85" height="85">
<path d="M84.1815 54.9072C84.1815 78.1532 65.3368 96.9979 42.0908 96.9979C18.8447 96.9979 0 78.1532 0 54.9072C0 31.6611 18.8447 12.8164 42.0908 12.8164C65.3368 12.8164 84.1815 31.6611 84.1815 54.9072Z" fill="#70ACDE"/>
</mask>
<g mask="url(#mask0_37968_15443)">
<circle cx="41.9971" cy="55.0088" r="42.0909" fill="#70ACDE"/>
<circle cx="41.9971" cy="55.0088" r="42.0909" fill="url(#paint0_linear_37968_15443)" fill-opacity="0.2"/>
<path d="M-0.548691 16.8803C10.3627 7.34841 25.8974 7.27876 34.149 16.7246C40.261 23.7211 40.6624 33.9757 36.0256 42.6969C35.9426 42.853 35.9667 43.0448 36.0831 43.178V43.178C40.1575 47.8421 39.0928 55.4386 33.705 60.1452C28.3172 64.8518 20.6466 64.8863 16.5722 60.2222V60.2222C15.5045 58.9998 13.9715 58.1425 12.3512 58.2376C5.57572 58.6351 -0.941095 56.3063 -5.36474 51.2424C-13.6163 41.7966 -11.4601 26.4121 -0.548691 16.8803Z" fill="#99E587"/>
<path d="M61.631 24.222C66.4929 23.1759 71.1684 25.7399 72.0739 29.9487C72.9795 34.1576 69.7723 38.4176 64.9104 39.4637C64.1792 39.621 63.4522 39.6966 62.7416 39.6973C61.1486 39.6988 59.537 40.0671 58.0246 40.5675C55.7446 41.3217 53.3028 40.8452 51.8068 39.1327C49.7184 36.742 50.264 32.8482 53.0257 30.4357C53.144 30.3323 53.2645 30.2333 53.3869 30.1388C54.3716 29.3782 55.2989 28.5069 56.0836 27.5414C57.3829 25.9425 59.3201 24.7192 61.631 24.222Z" fill="#99E587"/>
<path d="M53.6081 58.1072C59.4232 56.856 65.1655 60.6209 66.434 66.5164V66.5164C66.4349 66.5202 66.4371 66.5235 66.4404 66.5255C68.619 67.8193 70.2273 69.8663 70.7694 72.3856C71.604 76.2648 69.6739 80.1629 66.2076 82.4002C66.191 82.4109 66.1929 82.4359 66.211 82.4437V82.4437C66.2294 82.4517 66.2406 82.4714 66.2234 82.4816C65.3667 82.9893 47.3585 93.495 37.3772 85.3666C35.5734 84.0717 34.2602 82.2134 33.7808 79.9856C32.6669 74.8082 36.4779 69.5967 42.293 68.3456C42.3051 68.3429 42.3172 68.3404 42.3293 68.3378C43.8739 68.0103 45.1783 66.8016 45.6701 65.3012C46.8281 61.768 49.7492 58.9375 53.6081 58.1072Z" fill="#99E587"/>
<path d="M31.1319 39.7637C31.1319 40.9341 30.1831 41.8828 29.0127 41.8828C27.8423 41.8828 26.8936 40.9341 26.8936 39.7637C26.8936 38.5933 27.8423 37.6445 29.0127 37.6445C30.1831 37.6445 31.1319 38.5933 31.1319 39.7637Z" fill="#202020"/>
<path d="M45.3008 39.7637C45.3008 40.9341 44.352 41.8828 43.1817 41.8828C42.0113 41.8828 41.0625 40.9341 41.0625 39.7637C41.0625 38.5933 42.0113 37.6445 43.1817 37.6445C44.352 37.6445 45.3008 38.5933 45.3008 39.7637Z" fill="#202020"/>
<path d="M39.955 44.5227C40.6844 44.1662 41.573 44.4408 41.9704 45.1593C42.3678 45.8777 42.1282 46.7763 41.4386 47.2048L41.3704 47.2447C36.521 49.9272 31.8624 48.4533 29.9394 47.2439L29.8499 47.1865L29.7848 47.1415C29.1287 46.6635 28.9558 45.7495 29.405 45.0623C29.8543 44.3751 30.7609 44.1667 31.4621 44.5759L31.5292 44.6175L31.5858 44.6537C32.8105 45.4208 36.2558 46.5667 39.8849 44.5592L39.955 44.5227Z" fill="#202020"/>
</g>
<rect x="33.1895" width="69.8107" height="22.8149" rx="4" fill="#E5F3FF"/>
<path d="M96.5369 4.27504C96.7394 3.93926 97.126 3.78125 97.4389 3.78125C97.715 3.78125 97.9727 3.78125 98.2121 3.84051C99.2429 4.13678 98.9668 6.30947 98.9668 7.15879V12.9855C98.9668 13.4991 99.0036 14.0521 98.8379 14.5262C98.5066 15.415 96.7394 15.3558 96.408 14.5064C96.3344 14.2694 96.2976 13.8546 96.2792 13.5781C96.2608 13.1238 96.2792 12.63 96.2792 12.1362V5.5194C96.2792 5.20337 96.3344 4.61082 96.5369 4.27504ZM98.6539 16.9754C98.7275 17.0939 98.8011 17.2124 98.8379 17.3704C98.9852 17.9235 98.9484 18.7333 98.3409 19.0098C97.8071 19.2468 96.7762 19.1481 96.5369 18.4568C96.408 18.0815 96.3896 17.5482 96.5185 17.1729C96.6658 16.7779 97.0155 16.6594 97.3837 16.6594C97.8439 16.6396 98.3409 16.6396 98.6539 16.9754Z" fill="#0D6CD1"/>
<path d="M93.0217 15.8964C93.0953 15.9161 93.169 15.8964 93.2426 15.8964C93.6476 15.9359 94.0157 16.0346 94.3471 16.3704C94.5128 16.5284 94.6048 16.7654 94.6048 17.042C94.6048 17.3185 94.5128 17.7135 94.3655 17.8913C93.9973 18.3061 93.0769 18.2666 93.0401 18.2666H82.9155C82.805 18.2666 82.6762 18.2863 82.5657 18.2863C82.0319 18.3061 81.3876 18.3456 80.9642 17.9703C80.7249 17.7333 80.5776 17.437 80.5776 17.121C80.5776 16.7259 80.8169 16.2321 81.1851 16.0741C81.6821 15.8766 82.216 15.9161 82.7498 15.8964H82.8419C83.1548 15.8964 83.6518 15.8766 83.9832 15.8766C83.9832 15.2841 83.9464 14.8693 83.9464 14.8693V14.0397V14.0199C83.5966 14.0199 83.2468 14.0199 82.8971 14.0002C82.3817 13.9607 82.0135 13.3681 81.9583 12.6966C81.9214 12.2028 81.903 10.3461 81.903 9.93134V9.4573C81.8846 9.14127 81.8846 8.76599 82.1055 8.46972C82.4185 8.01543 83.0812 7.95617 83.615 7.95617C83.7439 7.95617 84.0936 7.99567 84.2593 7.97592H91.1624V6.53405H84.0752C83.9464 6.53405 83.7991 6.5538 83.6702 6.5538C83.523 6.5538 83.3573 6.57355 83.21 6.57355C82.9707 6.57355 82.7682 6.5538 82.5841 6.49454C82.3632 6.43529 82.1976 6.27728 82.0687 6.04025C81.903 5.72423 81.8662 5.32919 81.9399 4.97366C82.0687 4.49962 82.621 4.28235 82.8971 4.2231C83.0812 4.18359 83.2653 4.18359 83.4862 4.18359H84.1304C84.9036 4.20335 86.5604 4.20335 87.628 4.18359H91.3465C91.7699 4.18359 92.1933 4.18359 92.5799 4.32186C93.169 4.49962 93.2794 5.34895 93.2794 5.92174V8.3117C93.2794 8.70674 93.1505 9.85234 92.764 10.1289C92.4326 10.3461 92.1013 10.3461 91.8067 10.3264H84.1673V11.867H91.8251C92.046 11.867 92.2485 11.867 92.451 11.8868C92.8192 11.9065 93.1505 12.0843 93.2794 12.5386C93.4083 13.0719 93.2426 13.6447 92.8008 13.8619C92.5063 14.0002 92.1749 14.0199 91.9172 14.0199H91.0336C91.052 14.6915 91.052 15.1063 91.0704 15.8964H91.7699C92.2117 15.9161 92.6351 15.8569 93.0217 15.8964ZM86.2658 15.8964H88.3828H88.7878C88.7878 15.2841 88.7509 14.8693 88.7509 14.8693V14.0397V14.0199H86.229C86.2474 14.6915 86.2474 15.1063 86.2658 15.8964Z" fill="#0D6CD1"/>
<path d="M66.5417 10.6242C67.1124 10.6242 67.8671 10.6637 68.6955 10.7032C68.7139 10.3081 68.7139 9.8736 68.7139 9.47856C68.1801 9.41931 67.6462 9.28105 67.1124 8.98477C66.0447 8.39222 65.7317 7.30587 65.7317 6.27878C65.7317 4.02709 67.4621 3 70.5179 3C73.0215 3.13826 74.6782 4.36287 74.4941 6.59481C74.3469 8.29346 73.1319 9.3403 71.1622 9.53782V10.2489C71.1438 10.4266 71.1438 10.5847 71.1438 10.7427C71.7145 10.7229 71.7513 10.6834 72.8742 10.7229C73.3344 10.7229 73.7762 10.6834 74.1996 10.8809C74.5125 11.0389 74.715 11.4142 74.715 11.829C74.715 12.1648 74.5862 12.4808 74.3837 12.7178C74.0339 13.1129 73.4817 13.0931 73.0399 13.0536H66.5417C66.5049 13.0536 65.7317 13.0734 65.4372 12.6191C65.2899 12.4611 65.2163 12.1845 65.2163 11.908C65.2163 11.6315 65.3083 11.355 65.4372 11.1772C65.7133 10.8414 66.2288 10.6637 66.5417 10.6242ZM77.7524 16.8855C77.7892 16.9052 78.4703 17.083 78.544 17.636C78.6176 18.1298 78.544 18.5248 78.3231 18.8014C78.0469 19.1767 77.642 19.1964 77.6235 19.1964H68.0144C67.0756 19.1964 66.5049 18.8409 66.5049 18.2483V16.4904C66.4865 16.1941 66.4865 15.8979 66.5049 15.6016C66.5417 15.0485 66.9283 14.6733 67.4437 14.6733C67.5726 14.6733 67.8303 14.693 67.9407 14.7325C68.5666 14.9498 68.6034 15.6213 68.6403 16.2139C68.6403 16.4312 68.6587 16.6682 68.7139 16.846C68.7691 16.8657 69.1373 16.925 70.0025 16.925C70.7388 16.925 71.4199 16.8855 71.4383 16.8855H77.7524ZM75.9116 11.592V5.864C75.8932 5.27145 75.9116 4.30361 76.2245 3.96783C76.5006 3.71106 76.7768 3.67156 77.1081 3.67156C77.5131 3.67156 77.8813 3.94808 78.0285 4.34312C78.231 4.89617 78.2126 5.48872 78.231 6.06152C78.231 6.95034 78.2494 7.72066 78.2494 8.49098C78.7465 8.49098 79.1883 8.51073 79.4644 8.53048C80.1087 8.56998 80.5505 9.61682 80.1639 10.1501C79.8325 10.6439 79.041 10.7427 78.2678 10.7427V11.3747C78.2678 11.9278 78.1758 12.1648 78.0838 12.4611C78.0653 12.5401 78.0285 12.6191 77.9917 12.7178C77.9181 12.8759 77.8076 13.0339 77.6604 13.1326C77.4026 13.3104 77.0713 13.3499 76.7584 13.2906C76.6111 13.2511 76.4454 13.1721 76.3165 13.0536C75.8932 12.6191 75.9116 11.6315 75.9116 11.592ZM72.0826 6.79233L72.101 6.67382C72.2115 5.92325 71.7697 5.38996 70.9965 5.15294C69.9657 4.85666 68.1985 4.91592 67.996 6.10102C67.8487 6.89109 68.2537 7.54289 69.6711 7.6614C70.6468 7.74041 71.8433 7.74041 72.0826 6.79233Z" fill="#0D6CD1"/>
<path d="M63.2098 5.00107V9.52421C63.2098 9.939 63.2098 10.2945 63.173 10.5711C63.0994 11.2821 62.7312 11.7167 62.0317 11.8747C61.8476 11.8747 61.7003 11.9142 61.5162 11.9142H57.0246C56.8773 11.8747 56.6564 11.8747 56.3987 11.8747H53.527C53.2509 11.8352 53.03 11.7562 52.8459 11.5586C52.6986 11.4401 52.5882 11.2821 52.5146 11.0846C52.4409 10.8871 52.4041 10.6896 52.3673 10.492C52.3305 10.2945 52.2937 10.1365 52.2937 9.9785C52.2568 9.82049 52.2568 9.74148 52.2568 9.70198V5.43561C52.22 5.19859 52.2568 4.92206 52.2937 4.68504C52.3673 4.40852 52.4777 4.211 52.625 4.09249C52.7723 4.01348 52.9932 3.93448 53.2509 3.89497C53.4902 3.89497 53.8952 3.93448 54.1529 4.01348C54.4106 4.09249 54.5211 4.2505 54.5579 4.52703C54.5947 4.56653 54.5947 4.68504 54.5947 4.84305V5.3961C54.5947 6.00841 54.5211 6.32443 55.147 6.36394C55.5519 6.40344 55.8465 6.36394 56.2515 6.36394H60.0988C60.5406 6.36394 60.8904 6.40344 60.8904 5.8899C60.8904 5.3566 60.8167 4.60603 61.1113 4.1715C61.1849 4.05299 61.5163 3.93448 61.7372 3.89497C61.8108 3.89497 61.9212 3.85547 62.0317 3.85547H62.3999C63.0257 3.93448 63.2098 4.36901 63.2098 5.00107ZM51.9255 15.5682C51.7046 15.4892 51.4837 15.3707 51.3364 15.1337C51.226 14.9362 51.1523 14.6992 51.1523 14.4621C51.1523 14.2251 51.2628 13.9486 51.4101 13.7511C51.4837 13.6128 51.5941 13.5338 51.7414 13.4943C51.8887 13.4548 52.0359 13.4153 52.1464 13.3758H52.6986L62.5103 13.2573H63.0994C63.2835 13.2968 63.5044 13.3363 63.6516 13.4153C63.8357 13.4943 63.983 13.6128 64.0934 13.7511C64.2039 13.9091 64.2775 14.1066 64.2775 14.3831C64.2775 14.6992 64.1671 14.9362 63.983 15.0942C63.7621 15.2522 63.5412 15.3707 63.2466 15.4497C62.9889 15.5287 62.6944 15.5682 62.3999 15.5682H61.6635C61.5531 15.5682 61.4426 15.6077 61.3322 15.6077C61.369 16.0423 61.3322 16.8323 61.369 17.1089C61.369 17.4644 61.369 18.0767 61.2953 18.3927C61.2585 18.8668 61.1481 19.3408 60.7247 19.5778C60.2829 19.9334 59.3625 19.7753 59.1416 19.1828C58.9575 18.7483 58.9575 18.1952 58.9207 17.7014V15.6077H56.5828V17.6224C56.6196 17.9187 56.5828 18.1952 56.546 18.5507C56.5092 18.7878 56.5092 18.9853 56.3619 19.2223C56.1778 19.6568 55.7728 19.8149 55.3679 19.8149C55.1101 19.8149 54.9261 19.7358 54.742 19.6568C54.1529 19.3013 54.1897 18.3532 54.1897 17.7607L54.1529 15.6867H52.7355C52.4409 15.6867 52.1832 15.6472 51.9255 15.5682ZM60.8167 9.82049C61.0008 9.64272 60.9272 9.01067 60.9272 8.77365C60.9272 8.69464 60.8904 8.61563 60.8535 8.57613C60.7799 8.45762 60.6511 8.41811 60.5406 8.41811C60.1356 8.33911 59.6938 8.37861 59.2888 8.37861C57.7794 8.45762 56.5828 8.2206 55.1101 8.33911C54.9629 8.37861 54.8524 8.41811 54.742 8.49712C54.4843 8.65514 54.5947 9.32669 54.6315 9.56371C54.6683 9.70198 54.7052 9.78098 54.8156 9.82049C54.8892 9.89949 54.9997 9.89949 55.1101 9.939C55.2206 9.939 55.4415 9.9785 55.5519 9.9785H59.7306C60.0252 9.9785 60.5774 10.0575 60.8167 9.82049Z" fill="#0D6CD1"/>
<path d="M40.1667 12.8002C39.6881 12.9187 39.8353 13.4915 39.8353 13.847C39.8353 14.1631 39.8353 14.9334 39.8721 15.2889C39.8721 15.4469 39.8353 15.8025 39.9458 15.921C39.9458 15.9605 40.0194 16 40.0562 16C40.6085 16 41.3816 16 41.9339 15.9605C42.7991 15.9605 43.7931 15.921 44.6399 16C44.9713 16.0395 45.1553 16.1975 45.2658 16.395C45.4131 16.5925 45.4499 16.869 45.4499 17.1456C45.4867 17.4616 45.3762 17.7579 45.2658 17.9159C45.1553 18.0739 44.9713 18.1924 44.7872 18.3109C44.3086 18.5479 43.8299 18.4689 43.3145 18.5084C42.8727 18.5084 42.2468 18.5479 41.7866 18.5084C41.4184 18.4689 40.903 18.5084 40.5717 18.5084C40.2403 18.4689 39.909 18.5084 39.5776 18.5084C38.9885 18.4689 38.3627 18.4294 37.884 18.0739C37.6815 17.9554 37.5711 17.7579 37.4975 17.5406C37.3502 17.2246 37.2766 16.79 37.3134 16.4345C37.3502 15.2494 37.2766 13.61 37.2766 12.3657C37.2766 11.8916 37.2029 11.2991 37.4238 10.904C37.8472 10.1535 38.5467 10.3115 39.2094 10.3115H40.903C41.1975 10.3115 42.0075 10.3115 42.3205 10.2325C42.4309 10.193 42.5045 10.114 42.5414 9.99545C42.6518 9.32389 42.6518 8.41531 42.615 7.74375C42.615 7.46723 42.6518 6.91418 42.5045 6.67716C42.4309 6.55865 42.2468 6.47964 41.9339 6.47964L38.5099 6.51915C38.1786 6.51915 37.6815 6.44014 37.4606 6.16361C37.387 6.04511 37.3134 5.92659 37.2397 5.72908C37.0557 5.01802 37.387 4.36621 38.0681 4.2082C38.6572 4.08969 39.2463 4.16869 39.8353 4.12919H42.615C43.0936 4.12919 43.6459 4.08969 44.1245 4.2477C44.3822 4.32671 44.6031 4.52422 44.7872 4.84025C44.824 4.95876 44.8608 5.05752 44.8976 5.21553C44.9344 5.33404 44.9713 5.45255 44.9713 5.57106C45.0081 6.0056 45.0081 6.71666 45.0081 7.1117C45.0081 7.94127 45.0449 8.94861 45.0449 9.79793C45.0449 10.667 45.0817 11.5361 44.8608 12.1286C44.7504 12.3657 44.5663 12.5632 44.3454 12.6422C43.9404 12.8397 43.3881 12.7607 42.9832 12.7607C42.4309 12.7607 41.4553 12.8002 41.0135 12.8002C40.6085 12.8002 40.5717 12.7212 40.1667 12.8002ZM50.1992 17.6196C50.1624 17.9356 50.144 18.2319 50.052 18.5479C50.0152 18.6467 49.9783 18.7257 49.9415 18.8245C49.8679 18.9825 49.7574 19.1405 49.6102 19.259C49.334 19.4368 48.9843 19.4763 48.6713 19.3973C48.4873 19.3578 48.3216 19.2788 48.1927 19.1602C47.7509 18.7257 47.7693 17.6986 47.7693 17.6591V6.02535C47.7509 5.41305 47.7693 4.42546 48.1191 4.06993C48.3768 3.79341 48.6897 3.75391 49.0211 3.75391C49.4445 3.75391 49.8311 4.03043 49.9783 4.46497C50.1992 5.01802 50.1808 5.63032 50.1992 6.24262V6.34138C50.2545 8.35606 50.1992 10.0152 50.1992 11.9114V16.9085C50.1992 17.1456 50.2176 17.3826 50.1992 17.6196Z" fill="#0D6CD1"/>
<path d="M49.4498 27.4365L52.5104 22.2664C52.7077 21.9331 52.4674 21.5117 52.0801 21.5117H49.0195C48.7434 21.5117 48.5195 21.7356 48.5195 22.0117V27.1817C48.5195 27.6904 49.1907 27.8742 49.4498 27.4365Z" fill="#E5F3FF"/>
<defs>
<linearGradient id="paint0_linear_37968_15443" x1="35.5253" y1="32.6022" x2="66.9262" y2="87.4367" gradientUnits="userSpaceOnUse">
<stop stop-color="white"/>
<stop offset="1" stop-color="#2887D7"/>
</linearGradient>
</defs>
</svg>
