<svg viewBox="0 0 24 24" fill="none" xmlns="http://www.w3.org/2000/svg">
<path d="M6.1039 6.28973C6.68754 6.76386 6.90648 6.72769 8.00238 6.65458L18.3342 6.03419C18.5533 6.03419 18.3711 5.81558 18.2981 5.77925L16.5822 4.5388C16.2534 4.28355 15.8153 3.99123 14.9758 4.06435L4.9715 4.79404C4.60665 4.83022 4.53377 5.01263 4.67909 5.15887L6.1039 6.28973ZM6.72422 8.69753V19.5684C6.72422 20.1526 7.01618 20.3712 7.6733 20.335L19.028 19.678C19.6854 19.6419 19.7586 19.24 19.7586 18.7654V7.96754C19.7586 7.4937 19.5764 7.23816 19.1739 7.27464L7.30815 7.96754C6.87027 8.00433 6.72422 8.22337 6.72422 8.69753ZM17.9335 9.28066C18.0063 9.60933 17.9335 9.93767 17.6043 9.9746L17.0571 10.0836V18.1092C16.5822 18.3645 16.1441 18.5104 15.7791 18.5104C15.1947 18.5104 15.0484 18.3279 14.6107 17.781L11.0321 12.163V17.5986L12.1645 17.8541C12.1645 17.8541 12.1645 18.5104 11.2509 18.5104L8.73222 18.6565C8.65905 18.5104 8.73222 18.1459 8.98769 18.0729L9.64494 17.8908V10.704L8.73237 10.6309C8.6592 10.3022 8.84146 9.82837 9.35298 9.79159L12.0549 9.60946L15.7791 15.3005V10.266L14.8296 10.157C14.7567 9.75526 15.0484 9.46353 15.4135 9.42735L17.9335 9.28066ZM4.13151 3.80911L14.5376 3.0428C15.8155 2.93319 16.1443 3.00661 16.9475 3.59006L20.2692 5.92474C20.8173 6.32621 21 6.43551 21 6.87316V19.678C21 20.4805 20.7077 20.9551 19.6856 21.0277L7.60101 21.7575C6.83376 21.7941 6.4686 21.6847 6.0668 21.1737L3.6206 17.9999C3.18227 17.4157 3 16.9786 3 16.4673V5.08546C3 4.42919 3.29242 3.88178 4.13151 3.80911Z" fill="currentColor"/>
</svg>
