<svg viewBox="0 0 24 24" fill="none" xmlns="http://www.w3.org/2000/svg">
<path d="M19 12H5V19L5.00488 19.0986C5.02757 19.3276 5.12883 19.5429 5.29297 19.707C5.48051 19.8946 5.73478 20 6 20H18C18.2652 20 18.5195 19.8946 18.707 19.707C18.8946 19.5195 19 19.2652 19 19V12ZM10.0146 13C10.5669 13 11.0146 13.4477 11.0146 14C11.0146 14.5523 10.5669 15 10.0146 15H10.0049C9.45265 14.9999 9.00488 14.5522 9.00488 14C9.00488 13.4478 9.45265 13.0001 10.0049 13H10.0146ZM14.0146 13C14.5669 13 15.0146 13.4477 15.0146 14C15.0146 14.5523 14.5669 15 14.0146 15H14.0049C13.4527 14.9999 13.0049 14.5522 13.0049 14C13.0049 13.4478 13.4527 13.0001 14.0049 13H14.0146ZM15 7V6H9V7C9 7.55228 8.55228 8 8 8C7.44772 8 7 7.55228 7 7V6H6C5.73478 6 5.4805 6.10543 5.29297 6.29297C5.10543 6.4805 5 6.73478 5 7V10H19V7C19 6.73478 18.8946 6.48051 18.707 6.29297C18.5429 6.12883 18.3276 6.02757 18.0986 6.00488L18 6H17V7C17 7.55228 16.5523 8 16 8C15.4477 8 15 7.55228 15 7ZM21 19C21 19.7957 20.6837 20.5585 20.1211 21.1211C19.5585 21.6837 18.7957 22 18 22H6C5.20435 22 4.44151 21.6837 3.87891 21.1211C3.3163 20.5585 3 19.7957 3 19V7C3 6.20435 3.3163 5.44152 3.87891 4.87891C4.44152 4.3163 5.20435 4 6 4H7V3C7 2.44772 7.44772 2 8 2C8.55228 2 9 2.44772 9 3V4H15V3C15 2.44772 15.4477 2 16 2C16.5523 2 17 2.44772 17 3V4H18C18.7956 4 19.5585 4.3163 20.1211 4.87891C20.6837 5.44151 21 6.20435 21 7V19Z" fill="currentColor"/>
<path d="M13.4339 16.1795C13.8871 15.8639 14.5099 15.9753 14.8255 16.4285C15.1411 16.8817 15.0296 17.5045 14.5765 17.8201C13.8219 18.3455 12.9246 18.6277 12.0052 18.6277C11.0857 18.6277 10.1884 18.3455 9.43388 17.8201C8.9807 17.5045 8.86928 16.8817 9.18485 16.4285C9.50046 15.9753 10.1232 15.8639 10.5765 16.1795C10.9956 16.4713 11.4944 16.6277 12.0052 16.6277C12.516 16.6277 13.0147 16.4713 13.4339 16.1795Z" fill="currentColor"/>
</svg>
