<svg viewBox="0 0 24 24" fill="none" xmlns="http://www.w3.org/2000/svg">
<path d="M14 4.64854C14 4.59668 13.9798 4.54772 13.9451 4.51267C13.9279 4.49529 13.9078 4.48177 13.8864 4.47276L13.8182 4.45946H10.1818C10.1354 4.45946 10.0894 4.4778 10.0549 4.51267C10.0203 4.54772 10 4.59668 10 4.64854V6.67525H14V4.64854ZM7.26989 18.3718C7.27154 18.3918 7.27273 18.4126 7.27273 18.4326C7.27278 18.728 7.38886 19.0102 7.59375 19.2175C7.79876 19.4247 8.07605 19.5405 8.36364 19.5405H15.6364C15.924 19.5405 16.2012 19.4247 16.4062 19.2175C16.6111 19.0102 16.7272 18.728 16.7273 18.4326C16.7273 18.4126 16.7285 18.3918 16.7301 18.3718L17.5739 8.13471H6.42614L7.26989 18.3718ZM9.45455 16.595V11.0812C9.45455 10.6782 9.78016 10.3515 10.1818 10.3515C10.5835 10.3515 10.9091 10.6782 10.9091 11.0812V16.595C10.9089 16.9978 10.5833 17.3247 10.1818 17.3247C9.7803 17.3247 9.45477 16.9978 9.45455 16.595ZM13.0909 16.595V11.0812C13.0909 10.6782 13.4165 10.3515 13.8182 10.3515C14.2198 10.3515 14.5455 10.6782 14.5455 11.0812V16.595C14.5452 16.9978 14.2197 17.3247 13.8182 17.3247C13.4167 17.3247 13.0911 16.9978 13.0909 16.595ZM15.4545 6.67525H19.2727C19.6742 6.67525 19.9998 7.00216 20 7.40498C20 7.808 19.6744 8.13471 19.2727 8.13471H19.0331L18.179 18.4925C18.1637 19.15 17.9011 19.7788 17.4384 20.2465C16.9615 20.7286 16.3132 21 15.6364 21H8.36364C7.68684 21 7.03849 20.7286 6.56155 20.2465C6.09887 19.7788 5.83628 19.15 5.82102 18.4925L4.96686 8.13471H4.72727C4.32561 8.13471 4 7.808 4 7.40498C4.00023 7.00216 4.32575 6.67525 4.72727 6.67525H8.54545V4.64854C8.54548 4.21306 8.71647 3.79415 9.02273 3.48459C9.32918 3.17484 9.74611 3 10.1818 3H13.8182C14.2539 3 14.6708 3.17484 14.9773 3.48459C15.2835 3.79415 15.4545 4.21306 15.4545 4.64854V6.67525Z" fill="currentColor"/>
</svg>
