<svg viewBox="0 0 138 53" fill="none" xmlns="http://www.w3.org/2000/svg">
<path d="M39 0C50.5 1.5 53 14.5 53 23.5C53 24.5173 54.6496 25.1129 55.3675 24.3921C59.1538 20.5909 63.9091 19.6402 68.5 20.501C74.1991 21.3777 77.5911 27.2516 78.3405 34.7521C78.4652 36.0003 79.4822 37 80.7367 37C81.7387 37 82.6188 36.3479 82.9916 35.4178C87.288 24.6983 96.8094 22.1246 102.5 23C103.403 23.2084 104.229 23.4747 104.981 23.8029C112.955 27.2804 118.439 37 127.139 37H130C130.416 37 130.834 37.005 131.25 37.0016C135.789 36.9649 137.498 40.51 137.874 44.3863C138.258 48.3341 135.568 51.6472 131.62 52.0297C127.414 52.4373 120.891 52.346 111.417 51H7C3.13401 51 0 47.866 0 44C0 40.134 3.13401 37 7 37C12.9843 37 17.2188 30.7865 17.0215 24.8055C17.0072 24.373 17 23.9377 17 23.5C17 8.86445 29.0589 0 39 0Z" fill="currentColor"/>
</svg>
