<svg viewBox="0 0 115 108" fill="none" xmlns="http://www.w3.org/2000/svg">
<path d="M56.9817 0L58.3416 0.0268756C64.0865 0.259294 69.6792 1.94151 74.5991 4.91692C79.5189 7.89233 83.606 12.0642 86.4797 17.0441L86.9581 17.9202L87.9148 18.1299C92.8489 19.2859 97.4624 21.5296 101.418 24.697C105.374 27.8643 108.573 31.8754 110.78 36.4371L111.344 37.6626C113.591 42.8159 114.527 48.4454 114.068 54.0484C113.609 59.6514 111.769 65.0535 108.714 69.7724C105.658 74.4914 101.482 78.3802 96.5574 81.0918C91.6328 83.8034 86.1134 85.2532 80.4919 85.312L79.7179 85.3012L79.5191 85.5808C76.1772 89.986 71.6169 93.3147 66.4026 95.1547C61.1883 96.9947 55.5489 97.2653 50.1823 95.933L49.1826 95.6589L30.7194 106.731C29.9486 107.194 29.0741 107.456 28.1758 107.493C27.2776 107.53 26.3844 107.341 25.578 106.944C24.7716 106.547 24.0777 105.954 23.5599 105.219C23.0421 104.484 22.7168 103.631 22.6139 102.738L22.5817 102.125V89.0369L22.2861 88.8971C18.7577 87.1111 15.8475 84.3059 13.9333 80.8454L13.3851 79.7757C11.6834 76.197 11.0991 72.1888 11.7081 68.2732L11.9123 67.1445L11.2888 66.65C6.65089 62.8085 3.22491 57.7058 1.42498 51.9588C-0.374952 46.2118 -0.471784 40.0665 1.14619 34.2656L1.52781 32.9864C3.53763 26.8119 7.42527 21.4191 12.648 17.5609C17.8707 13.7026 24.1679 11.5714 30.6603 11.4649H31.5042L32.3104 10.578C38.4028 4.17058 46.75 0.386349 55.5842 0.0268756L56.9817 0ZM65.5817 59.125H38.7067C37.2812 59.125 35.914 59.6913 34.906 60.6993C33.898 61.7073 33.3317 63.0745 33.3317 64.5C33.3317 65.9255 33.898 67.2927 34.906 68.3007C35.914 69.3087 37.2812 69.875 38.7067 69.875H65.5817C67.0072 69.875 68.3744 69.3087 69.3824 68.3007C70.3904 67.2927 70.9567 65.9255 70.9567 64.5C70.9567 63.0745 70.3904 61.7073 69.3824 60.6993C68.3744 59.6913 67.0072 59.125 65.5817 59.125ZM81.7067 37.625H27.9567C26.5312 37.625 25.164 38.1913 24.156 39.1993C23.148 40.2073 22.5817 41.5745 22.5817 43C22.5817 44.4255 23.148 45.7927 24.156 46.8007C25.164 47.8087 26.5312 48.375 27.9567 48.375H81.7067C83.1322 48.375 84.4994 47.8087 85.5074 46.8007C86.5154 45.7927 87.0817 44.4255 87.0817 43C87.0817 41.5745 86.5154 40.2073 85.5074 39.1993C84.4994 38.1913 83.1322 37.625 81.7067 37.625Z" fill="currentColor"/>
</svg>
