<svg viewBox="0 0 24 24" fill="none" xmlns="http://www.w3.org/2000/svg">
<path d="M23.0194 6.50346C22.7549 5.51804 21.9755 4.74196 20.9859 4.47858C19.1923 4 12 4 12 4C12 4 4.80774 4 3.01405 4.47858C2.02449 4.742 1.24513 5.51804 0.980607 6.50346C0.5 8.28958 0.5 12.0162 0.5 12.0162C0.5 12.0162 0.5 15.7428 0.980607 17.5289C1.24513 18.5143 2.02449 19.258 3.01405 19.5214C4.80774 20 12 20 12 20C12 20 19.1923 20 20.9859 19.5214C21.9755 19.258 22.7549 18.5143 23.0194 17.5289C23.5 15.7428 23.5 12.0162 23.5 12.0162C23.5 12.0162 23.5 8.28958 23.0194 6.50346ZM9.64771 15.3996V8.63271L15.659 12.0163L9.64771 15.3996Z" fill="currentColor"/>
</svg>
