<svg viewBox="0 0 18 19" fill="none" xmlns="http://www.w3.org/2000/svg">
<path d="M3.1039 3.28973C3.68754 3.76386 3.90648 3.72769 5.00238 3.65458L15.3342 3.03419C15.5533 3.03419 15.3711 2.81558 15.2981 2.77925L13.5822 1.5388C13.2534 1.28355 12.8153 0.991225 11.9758 1.06435L1.9715 1.79404C1.60665 1.83022 1.53377 2.01263 1.67909 2.15887L3.1039 3.28973ZM3.72422 5.69753V16.5684C3.72422 17.1526 4.01618 17.3712 4.6733 17.335L16.028 16.678C16.6854 16.6419 16.7586 16.24 16.7586 15.7654V4.96754C16.7586 4.4937 16.5764 4.23816 16.1739 4.27464L4.30815 4.96754C3.87027 5.00433 3.72422 5.22337 3.72422 5.69753ZM14.9335 6.28066C15.0063 6.60933 14.9335 6.93767 14.6043 6.9746L14.0571 7.08361V15.1092C13.5822 15.3645 13.1441 15.5104 12.7791 15.5104C12.1947 15.5104 12.0484 15.3279 11.6107 14.781L8.0321 9.163V14.5986L9.1645 14.8541C9.1645 14.8541 9.1645 15.5104 8.2509 15.5104L5.73222 15.6565C5.65905 15.5104 5.73222 15.1459 5.98769 15.0729L6.64494 14.8908V7.704L5.73237 7.6309C5.6592 7.30222 5.84146 6.82837 6.35298 6.79159L9.0549 6.60946L12.7791 12.3005V7.26603L11.8296 7.15704C11.7567 6.75526 12.0484 6.46353 12.4135 6.42735L14.9335 6.28066ZM1.13151 0.809105L11.5376 0.0427956C12.8155 -0.0668144 13.1443 0.00660556 13.9475 0.590056L17.2692 2.92474C17.8173 3.32621 18 3.43551 18 3.87316V16.678C18 17.4805 17.7077 17.9551 16.6856 18.0277L4.60101 18.7575C3.83376 18.7941 3.4686 18.6847 3.0668 18.1737L0.6206 14.9999C0.18227 14.4157 0 13.9786 0 13.4673V2.08546C0 1.42919 0.29242 0.881775 1.13151 0.809105Z" fill="currentColor"/>
</svg>
