<svg viewBox="0 0 21 21" fill="none" xmlns="http://www.w3.org/2000/svg">
<path d="M10.5 0C16.2984 0 21 4.82344 21 10.7672C21 15.525 17.9906 19.5562 13.8188 20.9813C13.7531 20.9953 13.6969 21 13.6406 21C13.2516 21 13.1016 20.7141 13.1016 20.4656C13.1016 20.2078 13.1109 19.5328 13.1156 18.6328C13.5094 18.7219 13.8609 18.7594 14.175 18.7594C16.1953 18.7594 16.6547 17.1891 16.6547 17.1891C17.1328 15.9469 17.8219 15.6141 17.8219 15.6141C18.7359 14.9719 17.8266 14.9531 17.7563 14.9531H17.7516C16.6969 15.0469 16.1437 16.0687 16.1437 16.0687C15.6187 16.9875 14.9156 17.2453 14.2875 17.2453C13.7953 17.2453 13.35 17.0859 13.0875 16.9641C12.9937 16.2703 12.7219 15.7969 12.4219 15.525C14.7516 15.2531 17.2031 14.3297 17.2031 10.2047C17.2031 9.02812 16.7953 8.06719 16.125 7.31719C16.2328 7.04531 16.5938 5.94844 16.0219 4.46719C16.0219 4.46719 15.9469 4.44375 15.7875 4.44375C15.4078 4.44375 14.55 4.58906 13.1344 5.57344C12.2953 5.33437 11.4 5.21719 10.5047 5.2125C9.61406 5.21719 8.71406 5.33437 7.875 5.57344C6.45938 4.58906 5.60156 4.44375 5.22187 4.44375C5.0625 4.44375 4.9875 4.46719 4.9875 4.46719C4.41562 5.94844 4.77656 7.04531 4.88438 7.31719C4.21406 8.07188 3.80625 9.03281 3.80625 10.2047C3.80625 14.3391 6.2625 15.2484 8.60156 15.5156C8.22656 15.8484 7.88906 16.5047 7.88906 17.5078C7.88906 18.9469 7.90313 20.1094 7.90313 20.4609C7.90313 20.7141 7.75781 21 7.36875 21C7.3125 21 7.24688 20.9953 7.18125 20.9813C3.00469 19.5562 0 15.5203 0 10.7672C0 4.82344 4.70156 0 10.5 0Z" fill="currentColor"/>
</svg>
