<svg viewBox="0 0 13 13" fill="none" xmlns="http://www.w3.org/2000/svg">
<path d="M4.5 4.5V2.63333C4.5 1.88667 4.5 1.51333 4.64533 1.228C4.77333 0.976667 4.97667 0.773333 5.228 0.645333C5.51333 0.5 5.88667 0.5 6.63333 0.5H10.3667C11.1133 0.5 11.4867 0.5 11.772 0.645333C12.0229 0.773163 12.2268 0.977128 12.3547 1.228C12.5 1.51333 12.5 1.88667 12.5 2.63333V6.36667C12.5 7.11333 12.5 7.48667 12.3547 7.772C12.2268 8.02287 12.0229 8.22684 11.772 8.35467C11.4867 8.5 11.1133 8.5 10.3687 8.5H8.5M4.5 4.5H2.63333C1.88667 4.5 1.51333 4.5 1.228 4.64533C0.977128 4.77316 0.773163 4.97713 0.645333 5.228C0.5 5.51333 0.5 5.88667 0.5 6.63333V10.3667C0.5 11.1133 0.5 11.4867 0.645333 11.772C0.773163 12.0229 0.977128 12.2268 1.228 12.3547C1.51267 12.5 1.886 12.5 2.63133 12.5H6.36933C7.114 12.5 7.48667 12.5 7.772 12.3547C8.02287 12.2268 8.22684 12.0229 8.35467 11.772C8.5 11.4867 8.5 11.114 8.5 10.3687V8.5M4.5 4.5H6.36667C7.11333 4.5 7.48667 4.5 7.772 4.64533C8.02287 4.77316 8.22684 4.97713 8.35467 5.228C8.5 5.51267 8.5 5.886 8.5 6.63133V8.5" stroke="currentColor" stroke-linecap="round" stroke-linejoin="round"/>
</svg>
