<svg viewBox="0 0 88 88" fill="none" xmlns="http://www.w3.org/2000/svg">
<mask id="mask0_37871_15999" style="mask-type:alpha" maskUnits="userSpaceOnUse" x="0" y="14" width="61" height="61">
<path d="M60.428 44.214C60.428 60.9007 46.9007 74.428 30.214 74.428C13.5273 74.428 0 60.9007 0 44.214C0 27.5273 13.5273 14 30.214 14C46.9007 14 60.428 27.5273 60.428 44.214Z" fill="#70ACDE"/>
</mask>
<g mask="url(#mask0_37871_15999)">
<circle cx="30.1403" cy="44.384" r="34.5324" fill="#FF8F8F"/>
<ellipse cx="25.0962" cy="39.6669" rx="2.03618" ry="5.66299" fill="white"/>
<path d="M27.0617 40.0754C27.0617 38.3209 26.6691 36.8359 26.1392 35.8646C25.8757 35.3816 25.6138 35.0903 25.4156 34.9366C25.2308 34.7934 25.1416 34.7962 25.1328 34.7962C25.124 34.7962 25.0348 34.7934 24.8501 34.9366C24.6519 35.0903 24.39 35.3816 24.1265 35.8646C23.5966 36.8359 23.204 38.3209 23.2039 40.0754C23.2039 41.8299 23.5966 43.3149 24.1265 44.2862C24.39 44.7692 24.6519 45.0605 24.8501 45.2142C25.0349 45.3574 25.124 45.3545 25.1328 45.3545V47.4476L24.9257 47.4381C22.8692 47.2469 21.2206 44.2244 21.1163 40.4549L21.1108 40.0754C21.1109 36.0038 22.9116 32.7031 25.1328 32.7031C27.3541 32.7031 29.1548 36.0038 29.1548 40.0754L29.1494 40.4549C29.0416 44.3502 27.2847 47.4476 25.1328 47.4476V45.3545C25.1416 45.3545 25.2308 45.3574 25.4156 45.2142C25.6138 45.0605 25.8756 44.7692 26.1392 44.2862C26.6691 43.3149 27.0617 41.8299 27.0617 40.0754Z" fill="#1F1F22"/>
<path d="M21.2776 31.3324C21.2776 32.2797 20.5097 33.0476 19.5624 33.0476C18.6151 33.0476 17.8472 32.2797 17.8472 31.3324C17.8472 30.3851 18.6151 29.6172 19.5624 29.6172C20.5097 29.6172 21.2776 30.3851 21.2776 31.3324Z" fill="#1F1F22"/>
<path d="M32.7493 31.3324C32.7493 32.2797 31.9813 33.0476 31.0341 33.0476C30.0868 33.0476 29.3188 32.2797 29.3188 31.3324C29.3188 30.3851 30.0868 29.6172 31.0341 29.6172C31.9813 29.6172 32.7493 30.3851 32.7493 31.3324Z" fill="#1F1F22"/>
</g>
<path d="M74.2375 21.8112L69.2322 21.2811C68.6913 21.2239 68.1904 21.3362 67.8053 21.5609C66.8575 22.1137 67.036 23.4739 66.9854 24.57L66.23 40.9273C66.1794 42.0234 66.1126 43.2669 66.9484 43.9777C67.9365 44.8181 69.6157 45.0293 70.8007 44.4663C71.8204 43.9819 72.0864 42.7302 72.3242 41.6265L75.6781 26.0577C75.9575 24.7606 76.704 23.1324 75.6592 22.3144C75.3412 22.0654 74.8784 21.8789 74.2375 21.8112Z" fill="#1F1F22"/>
<path d="M71.3618 51.8845C71.25 53.599 69.7694 54.8983 68.0549 54.7864C66.3403 54.6746 65.0411 53.194 65.1529 51.4795C65.2648 49.7649 66.7454 48.4657 68.4599 48.5775C70.1745 48.6894 71.4737 50.17 71.3618 51.8845Z" fill="#1F1F22"/>
</svg>
