<svg viewBox="0 0 17 16" fill="none" xmlns="http://www.w3.org/2000/svg">
<path d="M8.33333 0C3.73611 0 0 2.89583 0 6.46528C0 8.6875 1.44444 10.632 3.64583 11.8125L2.71528 15.2083C2.69998 15.2757 2.70514 15.3461 2.73007 15.4106C2.75501 15.475 2.79861 15.5305 2.85528 15.57C2.91195 15.6095 2.97912 15.6313 3.0482 15.6324C3.11728 15.6335 3.18513 15.614 3.24306 15.5764L7.29167 12.8819C7.63773 12.9179 7.9854 12.9365 8.33333 12.9375C12.9375 12.9375 16.6667 10.0417 16.6667 6.46528C16.6667 2.88889 12.9375 0 8.33333 0Z" fill="currentColor"/>
</svg>
