<svg viewBox="0 0 24 24" fill="none" xmlns="http://www.w3.org/2000/svg">
<path fill-rule="evenodd" clip-rule="evenodd" d="M6.5 16H16C17.886 16 18.828 16 19.414 15.414C20 14.828 20 13.886 20 12V7C20 5.114 20 4.172 19.414 3.586C18.828 3 17.886 3 16 3H8C6.114 3 5.172 3 4.586 3.586C4 4.172 4 5.114 4 7V18.5C4 17.837 4.26339 17.2011 4.73223 16.7322C5.20107 16.2634 5.83696 16 6.5 16ZM16.414 9.414C16.605 9.22951 16.7574 9.00882 16.8622 8.76481C16.967 8.5208 17.0222 8.25836 17.0245 7.9928C17.0268 7.72724 16.9762 7.46388 16.8756 7.21809C16.7751 6.9723 16.6266 6.749 16.4388 6.56121C16.251 6.37342 16.0277 6.22492 15.7819 6.12436C15.5361 6.02379 15.2728 5.97319 15.0072 5.9755C14.7416 5.97781 14.4792 6.03298 14.2352 6.1378C13.9912 6.24262 13.7705 6.39498 13.586 6.586L11 9.172L10.414 8.586C10.2295 8.39498 10.0088 8.24262 9.76481 8.1378C9.5208 8.03298 9.25836 7.97781 8.9928 7.9755C8.72724 7.97319 8.46388 8.02379 8.21809 8.12436C7.9723 8.22492 7.749 8.37342 7.56121 8.56121C7.37342 8.749 7.22492 8.9723 7.12436 9.21809C7.02379 9.46388 6.97319 9.72724 6.9755 9.9928C6.97781 10.2584 7.03298 10.5208 7.1378 10.7648C7.24262 11.0088 7.39498 11.2295 7.586 11.414L8.879 12.707C9.44158 13.2694 10.2045 13.5854 11 13.5854C11.7955 13.5854 12.5584 13.2694 13.121 12.707L16.414 9.414Z" fill="currentColor"/>
<path d="M19 7C19 6.02927 18.9975 5.40042 18.9355 4.93945C18.8765 4.50545 18.783 4.36897 18.707 4.29297C18.631 4.21697 18.4945 4.12345 18.0605 4.06445C17.5986 4.0025 16.9707 4 16 4H8C7.02927 4 6.40042 4.0025 5.93945 4.06445C5.50545 4.12345 5.36897 4.21697 5.29297 4.29297C5.21697 4.36897 5.12345 4.50545 5.06445 4.93945C5.0025 5.40142 5 6.02927 5 7V15.3379C5.46444 15.1176 5.97614 15 6.5 15H16C16.9707 15 17.5986 14.9975 18.0605 14.9355C18.4945 14.8765 18.631 14.783 18.707 14.707C18.783 14.631 18.8765 14.4945 18.9355 14.0605C18.9975 13.5986 19 12.9707 19 12V7ZM15 5.00098C15.7955 5.00098 16.5585 5.3165 17.1211 5.87891C17.6835 6.44149 17.999 7.20451 17.999 8C17.999 8.79549 17.6835 9.55851 17.1211 10.1211L13.8281 13.4141C13.078 14.1639 12.0607 14.585 11 14.585C9.93934 14.585 8.92198 14.1639 8.17188 13.4141L6.87891 12.1211C6.3165 11.5585 6.00098 10.7955 6.00098 10C6.00098 9.20451 6.31649 8.44149 6.87891 7.87891C7.44149 7.31649 8.20451 7.00098 9 7.00098C9.73769 7.00098 10.4453 7.2747 10.9932 7.7627L12.8789 5.87891C13.4415 5.31649 14.2045 5.00098 15 5.00098ZM15 7C14.7348 7 14.4805 7.1055 14.293 7.29297L11.707 9.87891L11 9.1709L10.293 9.87891L9.70703 9.29297C9.5195 9.1055 9.26516 9 9 9C8.73484 9 8.4805 9.1055 8.29297 9.29297C8.1055 9.4805 8 9.73484 8 10C8 10.2652 8.1055 10.5195 8.29297 10.707L9.58594 12C9.96099 12.3749 10.4697 12.5859 11 12.5859C11.5303 12.5859 12.039 12.3749 12.4141 12L15.707 8.70703C15.8945 8.5195 16 8.26516 16 8C16 7.73484 15.8945 7.4805 15.707 7.29297C15.5195 7.1055 15.2652 7 15 7ZM11.707 9.87891L11 10.5859L10.293 9.87891L11 9.17188L11.707 9.87891ZM21 12C21 12.915 21.002 13.7001 20.918 14.3281C20.83 14.9831 20.6311 15.6111 20.1211 16.1211C19.6121 16.6311 18.9831 16.83 18.3281 16.918C17.7011 17.002 16.915 17 16 17H6.5C6.10218 17 5.72076 17.1581 5.43945 17.4395C5.15815 17.7208 5 18.1022 5 18.5C5 18.8978 5.15815 19.2792 5.43945 19.5605C5.72076 19.8419 6.10218 20 6.5 20H20C20.5523 20 21 20.4477 21 21C21 21.5523 20.5523 22 20 22H6.5C5.57174 22 4.68177 21.631 4.02539 20.9746C3.36902 20.3182 3 19.4283 3 18.5V7C3 6.085 2.99803 5.29987 3.08203 4.67188C3.17004 4.01692 3.36894 3.38887 3.87891 2.87891C4.38787 2.36894 5.01692 2.17004 5.67188 2.08203C6.29887 1.99803 7.085 2 8 2H16C16.915 2 17.7001 1.99803 18.3281 2.08203C18.9831 2.17004 19.6111 2.36894 20.1211 2.87891C20.6311 3.38787 20.83 4.01692 20.918 4.67188C21.002 5.29887 21 6.085 21 7V12Z" fill="currentColor"/>
</svg>
