<svg viewBox="0 0 16 18" fill="none" xmlns="http://www.w3.org/2000/svg">
<path d="M10 1.64854C9.99997 1.59668 9.97975 1.54772 9.94508 1.51267C9.92787 1.49529 9.90782 1.48177 9.88636 1.47276L9.81818 1.45946H6.18182C6.13535 1.45946 6.08944 1.4778 6.05492 1.51267C6.02025 1.54772 6.00003 1.59668 6 1.64854V3.67525H10V1.64854ZM3.26989 15.3718C3.27154 15.3918 3.27273 15.4126 3.27273 15.4326C3.27278 15.728 3.38886 16.0102 3.59375 16.2175C3.79876 16.4247 4.07605 16.5405 4.36364 16.5405H11.6364C11.924 16.5405 12.2012 16.4247 12.4062 16.2175C12.6111 16.0102 12.7272 15.728 12.7273 15.4326C12.7273 15.4126 12.7285 15.3918 12.7301 15.3718L13.5739 5.13471H2.42614L3.26989 15.3718ZM5.45455 13.595V8.08119C5.45455 7.67817 5.78016 7.35146 6.18182 7.35146C6.58348 7.35146 6.90909 7.67817 6.90909 8.08119V13.595C6.90886 13.9978 6.58334 14.3247 6.18182 14.3247C5.7803 14.3247 5.45477 13.9978 5.45455 13.595ZM9.09091 13.595V8.08119C9.09091 7.67817 9.41652 7.35146 9.81818 7.35146C10.2198 7.35146 10.5455 7.67817 10.5455 8.08119V13.595C10.5452 13.9978 10.2197 14.3247 9.81818 14.3247C9.41666 14.3247 9.09114 13.9978 9.09091 13.595ZM11.4545 3.67525H15.2727C15.6742 3.67525 15.9998 4.00216 16 4.40498C16 4.808 15.6744 5.13471 15.2727 5.13471H15.0331L14.179 15.4925C14.1637 16.15 13.9011 16.7788 13.4384 17.2465C12.9615 17.7286 12.3132 18 11.6364 18H4.36364C3.68684 18 3.03849 17.7286 2.56155 17.2465C2.09887 16.7788 1.83628 16.15 1.82102 15.4925L0.966856 5.13471H0.727273C0.325611 5.13471 0 4.808 0 4.40498C0.000227308 4.00216 0.325751 3.67525 0.727273 3.67525H4.54545V1.64854C4.54548 1.21306 4.71647 0.79415 5.02273 0.484586C5.32918 0.174843 5.74611 0 6.18182 0H9.81818C10.2539 0 10.6708 0.174843 10.9773 0.484586C11.2835 0.79415 11.4545 1.21306 11.4545 1.64854V3.67525Z" fill="currentColor"/>
</svg>
