<svg viewBox="0 0 23 16" fill="none" xmlns="http://www.w3.org/2000/svg">
<path d="M22.2801 2.50346C22.0184 1.51804 21.2473 0.741958 20.2682 0.478583C18.4937 0 11.3778 0 11.3778 0C11.3778 0 4.26196 0 2.48733 0.478583C1.50829 0.742 0.737208 1.51804 0.4755 2.50346C0 4.28958 0 8.01617 0 8.01617C0 8.01617 0 11.7427 0.4755 13.5289C0.737208 14.5143 1.50829 15.258 2.48733 15.5214C4.26196 16 11.3778 16 11.3778 16C11.3778 16 18.4936 16 20.2682 15.5214C21.2473 15.258 22.0184 14.5143 22.2801 13.5289C22.7556 11.7427 22.7556 8.01617 22.7556 8.01617C22.7556 8.01617 22.7556 4.28958 22.2801 2.50346ZM9.0505 11.3996V4.63271L14.998 8.01625L9.0505 11.3996Z" fill="currentColor"/>
</svg>
