<svg viewBox="0 0 182 182" fill="none" xmlns="http://www.w3.org/2000/svg">
<path d="M91.3768 30L92.9132 30.0303C99.4037 30.2919 105.722 32.1854 111.281 35.5345C116.839 38.8837 121.456 43.5795 124.703 49.185L125.244 50.1712L126.324 50.4071C131.899 51.7084 137.111 54.2338 141.581 57.7991C146.05 61.3643 149.663 65.8791 152.157 71.0139L152.795 72.3933C155.333 78.1939 156.39 84.5304 155.872 90.8372C155.353 97.144 153.275 103.225 149.823 108.536C146.371 113.848 141.652 118.225 136.089 121.277C130.525 124.33 124.289 125.962 117.938 126.028L117.064 126.016L116.839 126.33C113.064 131.289 107.911 135.036 102.02 137.107C96.1293 139.178 89.758 139.482 83.695 137.983L82.5655 137.674L61.7062 150.138C60.8354 150.658 59.8473 150.953 58.8325 150.995C57.8177 151.037 56.8086 150.824 55.8976 150.377C54.9865 149.93 54.2026 149.262 53.6175 148.435C53.0325 147.608 52.665 146.648 52.5488 145.642L52.5124 144.953V130.22L52.1784 130.063C48.192 128.053 44.9042 124.895 42.7416 121L42.1222 119.796C40.1997 115.768 39.5395 111.256 40.2275 106.849L40.4583 105.578L39.7539 105.022C34.514 100.698 30.6434 94.954 28.6099 88.4852C26.5764 82.0163 26.467 75.0991 28.2949 68.5696L28.7261 67.1297C30.9967 60.1797 35.3889 54.1095 41.2895 49.7666C47.19 45.4237 54.3044 43.0249 61.6394 42.9049H62.5928L63.5037 41.9067C70.3867 34.6944 79.8173 30.4349 89.798 30.0303L91.3768 30ZM101.093 96.5515H70.7301C69.1195 96.5515 67.575 97.1889 66.4361 98.3235C65.2973 99.4582 64.6575 100.997 64.6575 102.602C64.6575 104.206 65.2973 105.745 66.4361 106.88C67.575 108.014 69.1195 108.652 70.7301 108.652H101.093C102.703 108.652 104.248 108.014 105.387 106.88C106.526 105.745 107.166 104.206 107.166 102.602C107.166 100.997 106.526 99.4582 105.387 98.3235C104.248 97.1889 102.703 96.5515 101.093 96.5515ZM119.311 72.3509H58.5849C56.9744 72.3509 55.4298 72.9884 54.291 74.123C53.1521 75.2576 52.5124 76.7965 52.5124 78.4011C52.5124 80.0057 53.1521 81.5446 54.291 82.6792C55.4298 83.8138 56.9744 84.4512 58.5849 84.4512H119.311C120.921 84.4512 122.466 83.8138 123.605 82.6792C124.743 81.5446 125.383 80.0057 125.383 78.4011C125.383 76.7965 124.743 75.2576 123.605 74.123C122.466 72.9884 120.921 72.3509 119.311 72.3509Z" fill="currentColor"/>
</svg>
