<svg viewBox="0 0 255 199" fill="none" xmlns="http://www.w3.org/2000/svg">
<mask id="mask0_37871_15954" style="mask-type:alpha" maskUnits="userSpaceOnUse" x="55" y="0" width="145" height="144">
<path d="M199.5 72C199.5 111.765 167.265 144 127.5 144C87.7355 144 55.5 111.765 55.5 72C55.5 32.2355 87.7355 0 127.5 0C167.265 0 199.5 32.2355 199.5 72Z" fill="#70ACDE"/>
</mask>
<g mask="url(#mask0_37871_15954)">
<circle cx="127.347" cy="72.1701" r="72.0002" fill="#70ACDE"/>
<circle cx="127.347" cy="72.1701" r="72.0002" fill="url(#paint0_linear_37871_15954)" fill-opacity="0.2"/>
<path d="M54.5643 6.96349C73.2293 -9.34163 99.8028 -9.46077 113.918 6.69713C124.373 18.6654 125.06 36.2067 117.128 51.1251C116.986 51.3922 117.027 51.7203 117.226 51.9481C124.196 59.9265 122.375 72.921 113.158 80.9721C103.942 89.0231 90.8208 89.082 83.8512 81.1036C82.0247 79.0128 79.4024 77.5462 76.6308 77.7089C65.0407 78.3888 53.8931 74.4053 46.3261 65.743C32.2111 49.5851 35.8995 23.2686 54.5643 6.96349Z" fill="#99E587"/>
<path d="M160.925 19.5247C169.241 17.7354 177.239 22.1213 178.788 29.3209C180.337 36.5205 174.851 43.8076 166.534 45.597C165.283 45.8661 164.04 45.9955 162.824 45.9967C160.099 45.9993 157.343 46.6293 154.755 47.4852C150.855 48.7753 146.678 47.9602 144.119 45.0308C140.547 40.9414 141.48 34.2806 146.204 30.1539C146.407 29.977 146.613 29.8077 146.822 29.646C148.507 28.3449 150.093 26.8545 151.435 25.2028C153.658 22.4679 156.971 20.3753 160.925 19.5247Z" fill="#99E587"/>
<path d="M147.205 77.473C157.152 75.3328 166.975 81.773 169.145 91.8578C169.146 91.8643 169.15 91.87 169.156 91.8734C172.883 94.0864 175.634 97.588 176.561 101.898C177.989 108.533 174.687 115.201 168.758 119.028C168.729 119.047 168.733 119.089 168.764 119.103C168.795 119.116 168.814 119.15 168.785 119.168C167.319 120.036 136.515 138.007 119.441 124.103C116.355 121.888 114.109 118.709 113.289 114.898C111.383 106.042 117.902 97.127 127.85 94.9867C127.87 94.9822 127.891 94.9778 127.912 94.9734C130.554 94.4132 132.785 92.3456 133.626 89.7791C135.607 83.7352 140.604 78.8933 147.205 77.473Z" fill="#99E587"/>
<path d="M108.751 46.0938C108.751 48.0958 107.128 49.7188 105.126 49.7188C103.124 49.7188 101.501 48.0958 101.501 46.0938C101.501 44.0917 103.124 42.4688 105.126 42.4688C107.128 42.4688 108.751 44.0917 108.751 46.0938Z" fill="#202020"/>
<path d="M132.999 46.0938C132.999 48.0958 131.376 49.7188 129.374 49.7188C127.372 49.7188 125.749 48.0958 125.749 46.0938C125.749 44.0917 127.372 42.4688 129.374 42.4688C131.376 42.4688 132.999 44.0917 132.999 46.0938Z" fill="#202020"/>
<path d="M123.85 54.266C125.097 53.6563 126.617 54.126 127.297 55.3549C127.977 56.5838 127.567 58.121 126.388 58.8539L126.271 58.9223C117.976 63.5109 110.007 60.9897 106.717 58.9208L106.564 58.8227L106.453 58.7458C105.33 57.928 105.035 56.3646 105.803 55.1891C106.572 54.0136 108.122 53.657 109.322 54.3571L109.437 54.4281L109.534 54.4902C111.628 55.8024 117.522 57.7625 123.73 54.3285L123.85 54.266Z" fill="#202020"/>
</g>
<path d="M244.62 180.639C241.339 180.639 239.762 182.862 239.762 187.143V187.967C239.762 192.372 241.173 194.471 244.412 194.471C247.858 194.471 249.851 192.001 249.851 188.914V185.126C249.851 183.027 248.232 180.639 244.62 180.639ZM252.384 168C253.754 168 255 168.7 255 170.182V196.695C255 198.135 253.796 198.794 252.509 198.794C251.263 198.794 250.059 198.135 250.059 196.695V195.871H249.934C248.73 198.053 246.114 198.876 243.374 198.876C237.602 198.876 234.571 195.13 234.571 188.09V187.02C234.571 179.857 238.225 176.193 243.748 176.193C247.36 176.193 249.104 177.633 249.768 178.622V170.182C249.768 168.7 251.055 168 252.384 168Z" fill="#1F1F22"/>
<path d="M220.443 189.202C217.703 189.202 216.748 190.314 216.748 192.084V192.166C216.748 193.731 217.827 194.554 219.862 194.554C221.481 194.554 222.727 194.307 223.723 193.731C225.052 192.949 225.592 192.002 225.592 190.273V189.202H220.443ZM221.523 176.193C226.879 176.193 230.741 178.869 230.741 183.439V196.818C230.741 198.177 229.578 198.795 228.374 198.795C227.17 198.795 226.007 198.177 226.007 196.818V195.748H225.966C225.55 196.695 224.678 197.395 223.516 197.971C222.436 198.506 220.858 198.877 219.447 198.877C214.506 198.877 211.682 196.489 211.682 192.413V191.755C211.682 188.008 213.841 185.209 220.319 185.209H225.55V184.633C225.55 181.833 224.305 180.68 221.481 180.68C219.613 180.68 217.827 181.174 216.166 182.162C215.045 182.821 213.883 182.451 213.218 181.38C212.596 180.351 212.72 179.075 213.8 178.375C215.793 177.058 218.616 176.193 221.523 176.193Z" fill="#1F1F22"/>
<path d="M186.611 176.193C189.435 176.193 191.884 177.593 192.715 179.651C194.334 177.387 196.369 176.193 199.815 176.193C204.05 176.193 207.704 179.075 207.704 184.756V196.613C207.704 198.095 206.458 198.795 205.088 198.795C203.76 198.795 202.472 198.095 202.472 196.613V185.826C202.472 181.751 200.521 180.804 198.32 180.804C196.286 180.804 194.127 181.874 194.127 185.662V196.613C194.127 198.095 192.881 198.795 191.511 198.795C190.182 198.795 188.895 198.095 188.895 196.613V185.744C188.895 181.915 187.068 180.804 184.743 180.804C182.293 180.804 180.549 182.327 180.549 185.456V196.613C180.549 198.095 179.303 198.795 177.933 198.795C176.605 198.795 175.317 198.095 175.317 196.613V178.54C175.317 177.099 176.521 176.44 177.767 176.44C179.054 176.44 180.258 177.099 180.258 178.54V179.692C181.463 177.469 183.705 176.193 186.611 176.193Z" fill="#1F1F22"/>
<path d="M160.395 176.193C167.121 176.193 171.107 179.939 171.107 187.02V188.05C171.107 195.131 167.121 198.877 160.395 198.877C153.668 198.877 149.682 195.131 149.682 188.05V187.02C149.682 179.939 153.668 176.193 160.395 176.193ZM160.395 180.722C156.658 180.722 154.955 182.656 154.955 187.103V187.967C154.955 192.413 156.658 194.348 160.395 194.348C164.132 194.348 165.834 192.413 165.834 187.967V187.103C165.834 182.656 164.132 180.722 160.395 180.722Z" fill="#1F1F22"/>
<path d="M142.802 169.029C144.048 169.029 145.252 169.688 145.252 171.17V195.212C145.252 197.806 144.38 198.629 141.722 198.629C139.688 198.629 138.899 198.218 136.781 194.471L128.934 180.556C128.103 179.074 127.439 177.675 126.941 175.822V196.653C126.941 198.135 125.737 198.794 124.491 198.794C123.245 198.794 122.041 198.135 122.041 196.653V172.611C122.041 170.017 122.913 169.194 125.571 169.194C127.605 169.194 128.394 169.647 130.512 173.352L138.359 187.267C139.19 188.749 139.854 190.149 140.352 192.001V171.17C140.352 169.688 141.556 169.029 142.802 169.029Z" fill="#1F1F22"/>
<path d="M113.763 168C115.133 168 116.379 168.7 116.379 170.223V196.571C116.379 198.094 115.133 198.794 113.763 198.794C112.393 198.794 111.147 198.094 111.147 196.571V170.223C111.147 168.7 112.393 168 113.763 168Z" fill="#1F1F22"/>
<path d="M95.7734 189.202C93.033 189.202 92.078 190.314 92.078 192.084V192.166C92.078 193.731 93.1575 194.554 95.1921 194.554C96.8114 194.554 98.0571 194.307 99.0536 193.731C100.382 192.949 100.922 192.002 100.922 190.273V189.202H95.7734ZM96.8529 176.193C102.209 176.193 106.071 178.869 106.071 183.439V196.818C106.071 198.177 104.908 198.795 103.704 198.795C102.5 198.795 101.337 198.177 101.337 196.818V195.748H101.296C100.881 196.695 100.009 197.395 98.846 197.971C97.7664 198.506 96.1886 198.877 94.7769 198.877C89.8358 198.877 87.0124 196.489 87.0124 192.413V191.755C87.0124 188.008 89.1715 185.209 95.6488 185.209H100.881V184.633C100.881 181.833 99.6349 180.68 96.8114 180.68C94.9429 180.68 93.1575 181.174 91.4967 182.162C90.3756 182.821 89.213 182.451 88.5486 181.38C87.9258 180.351 88.0504 179.075 89.1299 178.375C91.123 177.058 93.9464 176.193 96.8529 176.193Z" fill="#1F1F22"/>
<path d="M66.1983 168C67.5685 168 68.8142 168.7 68.8142 170.182V178.91C70.3089 176.769 73.257 176.193 75.0839 176.193C81.063 176.193 84.011 179.939 84.011 186.979V188.049C84.011 195.212 80.3571 198.876 74.8348 198.876C71.8037 198.876 69.7276 197.641 68.6896 195.912H68.565V196.695C68.565 198.135 67.3609 198.794 66.0737 198.794C64.7866 198.794 63.5825 198.135 63.5825 196.695V170.182C63.5825 168.7 64.8696 168 66.1983 168ZM74.0459 180.639C70.5581 180.639 68.7311 182.903 68.7311 185.991V189.819C68.7311 192.084 71.0148 194.471 74.1704 194.471C77.2015 194.471 78.8208 192.248 78.8208 187.926V187.102C78.8208 182.862 77.4921 180.639 74.0459 180.639Z" fill="#1F1F22"/>
<path d="M48.6598 176.193C55.3863 176.193 59.3724 179.939 59.3724 187.02V188.05C59.3724 195.131 55.3863 198.877 48.6598 198.877C41.9333 198.877 37.9473 195.131 37.9473 188.05V187.02C37.9473 179.939 41.9333 176.193 48.6598 176.193ZM48.6598 180.722C44.9229 180.722 43.2205 182.656 43.2205 187.103V187.967C43.2205 192.413 44.9229 194.348 48.6598 194.348C52.3967 194.348 54.0991 192.413 54.0991 187.967V187.103C54.0991 182.656 52.3967 180.722 48.6598 180.722Z" fill="#1F1F22"/>
<path d="M31.1224 168C32.4926 168 33.7382 168.7 33.7382 170.223V196.571C33.7382 198.094 32.4926 198.794 31.1224 198.794C29.7522 198.794 28.5065 198.094 28.5065 196.571V170.223C28.5065 168.7 29.7522 168 31.1224 168Z" fill="#1F1F22"/>
<path d="M13.3284 168.823C17.2314 168.823 19.9718 169.729 21.9233 171.046C23.169 171.911 23.252 173.311 22.4631 174.422C21.6742 175.534 20.4286 175.822 19.3905 175.163C17.8127 174.175 15.8612 173.599 13.3284 173.599C7.76451 173.599 5.35627 175.904 5.35627 183.479V184.344C5.35627 191.919 7.63995 194.224 13.5775 194.224C15.6121 194.224 17.0238 193.977 18.5601 193.36V186.485H13.9097C12.6225 186.485 12.0412 185.456 12.0412 184.262C12.0412 183.109 12.6225 182.08 13.9097 182.08H20.304C22.9614 182.08 23.8333 182.903 23.8333 185.497V193.648C23.8333 195.748 23.2105 196.777 21.4251 197.518C19.2244 198.424 16.2764 199 13.4114 199C4.73345 199 0 195.171 0 184.756V183.068C0 172.652 4.73345 168.823 13.3284 168.823Z" fill="#1F1F22"/>
<defs>
<linearGradient id="paint0_linear_37871_15954" x1="116.276" y1="33.8415" x2="169.99" y2="127.641" gradientUnits="userSpaceOnUse">
<stop stop-color="white"/>
<stop offset="1" stop-color="#2887D7"/>
</linearGradient>
</defs>
</svg>
